<mxfile host="app.diagrams.net" modified="2023-05-09T15:25:42.095Z" agent="Mozilla/5.0 (X11; Linux x86_64) AppleWebKit/537.36 (KHTML, like Gecko) Chrome/112.0.0.0 Safari/537.36" etag="1lraO9jbtkR7DGFK2I09" version="21.2.3" type="device" pages="2">
  <diagram name="Page-1" id="2YBvvXClWsGukQMizWep">
    <mxGraphModel dx="1793" dy="966" grid="1" gridSize="10" guides="1" tooltips="1" connect="1" arrows="1" fold="1" page="1" pageScale="1" pageWidth="850" pageHeight="1100" math="0" shadow="0">
      <root>
        <mxCell id="0" />
        <mxCell id="1" parent="0" />
        <mxCell id="pq50q-hKfieiKfYcffR--2" value="" style="endArrow=none;dashed=1;html=1;rounded=0;" edge="1" parent="1" target="pq50q-hKfieiKfYcffR--1">
          <mxGeometry width="50" height="50" relative="1" as="geometry">
            <mxPoint x="144" y="1460" as="sourcePoint" />
            <mxPoint x="144.24" y="210" as="targetPoint" />
          </mxGeometry>
        </mxCell>
        <mxCell id="E2OUhO5gZIwPXRVno6Ox-1" value="" style="endArrow=none;dashed=1;html=1;rounded=0;" edge="1" parent="1" target="E2OUhO5gZIwPXRVno6Ox-8">
          <mxGeometry width="50" height="50" relative="1" as="geometry">
            <mxPoint x="55" y="1460" as="sourcePoint" />
            <mxPoint x="90" y="190" as="targetPoint" />
          </mxGeometry>
        </mxCell>
        <mxCell id="E2OUhO5gZIwPXRVno6Ox-2" value="" style="endArrow=none;dashed=1;html=1;rounded=0;" edge="1" parent="1" source="pq50q-hKfieiKfYcffR--1">
          <mxGeometry width="50" height="50" relative="1" as="geometry">
            <mxPoint x="144" y="1340" as="sourcePoint" />
            <mxPoint x="144.24" y="210" as="targetPoint" />
          </mxGeometry>
        </mxCell>
        <mxCell id="E2OUhO5gZIwPXRVno6Ox-3" value="alternative" style="shape=umlFrame;whiteSpace=wrap;html=1;pointerEvents=0;" vertex="1" parent="1">
          <mxGeometry x="30" y="380" width="740" height="320" as="geometry" />
        </mxCell>
        <mxCell id="E2OUhO5gZIwPXRVno6Ox-4" value="" style="endArrow=none;dashed=1;html=1;rounded=0;entryX=0.314;entryY=1.116;entryDx=0;entryDy=0;entryPerimeter=0;" edge="1" parent="1" target="wZW1d1mJMonM-m0sMjYR-2">
          <mxGeometry width="50" height="50" relative="1" as="geometry">
            <mxPoint x="235" y="1461.7391304347825" as="sourcePoint" />
            <mxPoint x="234.76" y="160" as="targetPoint" />
          </mxGeometry>
        </mxCell>
        <mxCell id="E2OUhO5gZIwPXRVno6Ox-5" value="Tags" style="shape=umlLifeline;perimeter=lifelinePerimeter;whiteSpace=wrap;html=1;container=0;dropTarget=0;collapsible=0;recursiveResize=0;outlineConnect=0;portConstraint=eastwest;newEdgeStyle={&quot;edgeStyle&quot;:&quot;elbowEdgeStyle&quot;,&quot;elbow&quot;:&quot;vertical&quot;,&quot;curved&quot;:0,&quot;rounded&quot;:0};" vertex="1" parent="1">
          <mxGeometry x="410" y="100" width="60" height="1360" as="geometry" />
        </mxCell>
        <mxCell id="E2OUhO5gZIwPXRVno6Ox-6" value="" style="html=1;points=[];perimeter=orthogonalPerimeter;outlineConnect=0;targetShapes=umlLifeline;portConstraint=eastwest;newEdgeStyle={&quot;edgeStyle&quot;:&quot;elbowEdgeStyle&quot;,&quot;elbow&quot;:&quot;vertical&quot;,&quot;curved&quot;:0,&quot;rounded&quot;:0};" vertex="1" parent="E2OUhO5gZIwPXRVno6Ox-5">
          <mxGeometry x="25" y="130" width="10" height="40" as="geometry" />
        </mxCell>
        <mxCell id="E2OUhO5gZIwPXRVno6Ox-7" value="" style="endArrow=none;dashed=1;html=1;rounded=0;" edge="1" parent="1" target="E2OUhO5gZIwPXRVno6Ox-17">
          <mxGeometry width="50" height="50" relative="1" as="geometry">
            <mxPoint x="350" y="1460" as="sourcePoint" />
            <mxPoint x="344.76" y="159.67000000000002" as="targetPoint" />
          </mxGeometry>
        </mxCell>
        <mxCell id="E2OUhO5gZIwPXRVno6Ox-8" value="" style="shape=umlActor;verticalLabelPosition=bottom;verticalAlign=top;html=1;outlineConnect=0;" vertex="1" parent="1">
          <mxGeometry x="40" y="100" width="30" height="60" as="geometry" />
        </mxCell>
        <mxCell id="E2OUhO5gZIwPXRVno6Ox-11" value="" style="endArrow=none;dashed=1;html=1;rounded=0;entryX=0.558;entryY=1.129;entryDx=0;entryDy=0;entryPerimeter=0;" edge="1" parent="1" source="E2OUhO5gZIwPXRVno6Ox-13" target="rPwwfvKBBlZN4n0_QZvu-1">
          <mxGeometry width="50" height="50" relative="1" as="geometry">
            <mxPoint x="1004.76" y="330.3333333333333" as="sourcePoint" />
            <mxPoint x="1004.76" y="150" as="targetPoint" />
          </mxGeometry>
        </mxCell>
        <mxCell id="E2OUhO5gZIwPXRVno6Ox-12" value="" style="endArrow=none;dashed=1;html=1;rounded=0;" edge="1" parent="1">
          <mxGeometry width="50" height="50" relative="1" as="geometry">
            <mxPoint x="1000" y="1460" as="sourcePoint" />
            <mxPoint x="1000" y="1340" as="targetPoint" />
          </mxGeometry>
        </mxCell>
        <mxCell id="E2OUhO5gZIwPXRVno6Ox-13" value="" style="html=1;points=[];perimeter=orthogonalPerimeter;outlineConnect=0;targetShapes=umlLifeline;portConstraint=eastwest;newEdgeStyle={&quot;edgeStyle&quot;:&quot;elbowEdgeStyle&quot;,&quot;elbow&quot;:&quot;vertical&quot;,&quot;curved&quot;:0,&quot;rounded&quot;:0};" vertex="1" parent="1">
          <mxGeometry x="1000" y="1080" width="10" height="340" as="geometry" />
        </mxCell>
        <mxCell id="E2OUhO5gZIwPXRVno6Ox-14" value="&lt;font style=&quot;font-size: 9px;&quot;&gt;&lt;br&gt;&lt;/font&gt;" style="html=1;verticalAlign=bottom;endArrow=block;edgeStyle=elbowEdgeStyle;elbow=vertical;curved=0;rounded=0;" edge="1" parent="1">
          <mxGeometry relative="1" as="geometry">
            <mxPoint x="60" y="181" as="sourcePoint" />
            <Array as="points">
              <mxPoint x="60" y="181" />
              <mxPoint x="135" y="185.76" />
            </Array>
            <mxPoint x="140" y="181" as="targetPoint" />
          </mxGeometry>
        </mxCell>
        <mxCell id="E2OUhO5gZIwPXRVno6Ox-16" value="" style="endArrow=none;dashed=1;html=1;rounded=0;entryX=0.307;entryY=1.116;entryDx=0;entryDy=0;entryPerimeter=0;" edge="1" parent="1" source="E2OUhO5gZIwPXRVno6Ox-17" target="f5XUt4maeCJUqlZOtaNx-2">
          <mxGeometry width="50" height="50" relative="1" as="geometry">
            <mxPoint x="344.76" y="340.00333333333333" as="sourcePoint" />
            <mxPoint x="344.76" y="159.67000000000002" as="targetPoint" />
          </mxGeometry>
        </mxCell>
        <mxCell id="E2OUhO5gZIwPXRVno6Ox-17" value="" style="html=1;points=[];perimeter=orthogonalPerimeter;outlineConnect=0;targetShapes=umlLifeline;portConstraint=eastwest;newEdgeStyle={&quot;edgeStyle&quot;:&quot;elbowEdgeStyle&quot;,&quot;elbow&quot;:&quot;vertical&quot;,&quot;curved&quot;:0,&quot;rounded&quot;:0};" vertex="1" parent="1">
          <mxGeometry x="340" y="270" width="10" height="60" as="geometry" />
        </mxCell>
        <mxCell id="E2OUhO5gZIwPXRVno6Ox-18" value="&lt;font style=&quot;font-size: 9px;&quot;&gt;load_tags()&lt;/font&gt;" style="html=1;verticalAlign=bottom;endArrow=block;edgeStyle=elbowEdgeStyle;elbow=vertical;curved=0;rounded=0;" edge="1" parent="1">
          <mxGeometry x="-0.0024" relative="1" as="geometry">
            <mxPoint x="240" y="238.76" as="sourcePoint" />
            <Array as="points">
              <mxPoint x="420" y="238.76" />
              <mxPoint x="370" y="248.76" />
              <mxPoint x="330" y="233.76" />
              <mxPoint x="425" y="238.27999999999997" />
            </Array>
            <mxPoint x="435" y="238.76" as="targetPoint" />
            <mxPoint as="offset" />
          </mxGeometry>
        </mxCell>
        <mxCell id="E2OUhO5gZIwPXRVno6Ox-19" value="&lt;font style=&quot;font-size: 9px;&quot;&gt;load_ok()&lt;/font&gt;" style="html=1;verticalAlign=bottom;endArrow=open;dashed=1;endSize=8;edgeStyle=elbowEdgeStyle;elbow=vertical;curved=0;rounded=0;" edge="1" parent="1" target="E2OUhO5gZIwPXRVno6Ox-23">
          <mxGeometry relative="1" as="geometry">
            <mxPoint x="350" y="258" as="targetPoint" />
            <Array as="points" />
            <mxPoint x="435" y="258.1428571428571" as="sourcePoint" />
          </mxGeometry>
        </mxCell>
        <mxCell id="E2OUhO5gZIwPXRVno6Ox-20" value="&lt;font style=&quot;font-size: 9px;&quot;&gt;apply_tags()&lt;/font&gt;" style="html=1;verticalAlign=bottom;endArrow=open;dashed=1;endSize=8;edgeStyle=elbowEdgeStyle;elbow=vertical;curved=0;rounded=0;" edge="1" parent="1">
          <mxGeometry relative="1" as="geometry">
            <mxPoint x="240" y="323.1372549019608" as="targetPoint" />
            <Array as="points" />
            <mxPoint x="340" y="322.99666666666667" as="sourcePoint" />
          </mxGeometry>
        </mxCell>
        <mxCell id="E2OUhO5gZIwPXRVno6Ox-21" value="" style="endArrow=classic;html=1;rounded=0;" edge="1" parent="1">
          <mxGeometry width="50" height="50" relative="1" as="geometry">
            <mxPoint x="240" y="370" as="sourcePoint" />
            <mxPoint x="240" y="400" as="targetPoint" />
            <Array as="points">
              <mxPoint x="260" y="370" />
              <mxPoint x="320" y="370" />
              <mxPoint x="320" y="390" />
              <mxPoint x="320" y="400" />
              <mxPoint x="270" y="400" />
              <mxPoint x="250" y="400" />
            </Array>
          </mxGeometry>
        </mxCell>
        <mxCell id="E2OUhO5gZIwPXRVno6Ox-22" value="validate_form()" style="edgeLabel;html=1;align=center;verticalAlign=middle;resizable=0;points=[];" vertex="1" connectable="0" parent="E2OUhO5gZIwPXRVno6Ox-21">
          <mxGeometry x="-0.5747" relative="1" as="geometry">
            <mxPoint x="10" y="-10" as="offset" />
          </mxGeometry>
        </mxCell>
        <mxCell id="E2OUhO5gZIwPXRVno6Ox-23" value="" style="html=1;points=[];perimeter=orthogonalPerimeter;outlineConnect=0;targetShapes=umlLifeline;portConstraint=eastwest;newEdgeStyle={&quot;edgeStyle&quot;:&quot;elbowEdgeStyle&quot;,&quot;elbow&quot;:&quot;vertical&quot;,&quot;curved&quot;:0,&quot;rounded&quot;:0};" vertex="1" parent="1">
          <mxGeometry x="230" y="190" width="10" height="530" as="geometry" />
        </mxCell>
        <mxCell id="E2OUhO5gZIwPXRVno6Ox-24" value="" style="endArrow=classic;html=1;rounded=0;" edge="1" parent="1" target="E2OUhO5gZIwPXRVno6Ox-59">
          <mxGeometry width="50" height="50" relative="1" as="geometry">
            <mxPoint x="240" y="430" as="sourcePoint" />
            <mxPoint x="520" y="430" as="targetPoint" />
            <Array as="points">
              <mxPoint x="260" y="430" />
              <mxPoint x="300" y="430" />
              <mxPoint x="320" y="430" />
              <mxPoint x="340" y="430" />
            </Array>
          </mxGeometry>
        </mxCell>
        <mxCell id="E2OUhO5gZIwPXRVno6Ox-25" value="&lt;font style=&quot;font-size: 9px;&quot;&gt;show_message()&lt;/font&gt;" style="edgeLabel;html=1;align=center;verticalAlign=middle;resizable=0;points=[];" vertex="1" connectable="0" parent="E2OUhO5gZIwPXRVno6Ox-24">
          <mxGeometry x="-0.4745" y="1" relative="1" as="geometry">
            <mxPoint x="5" y="-9" as="offset" />
          </mxGeometry>
        </mxCell>
        <mxCell id="E2OUhO5gZIwPXRVno6Ox-26" value="&lt;font style=&quot;font-size: 9px;&quot;&gt;&lt;b&gt;User Accepted&lt;/b&gt;&lt;/font&gt;" style="text;html=1;strokeColor=#82b366;fillColor=#d5e8d4;align=center;verticalAlign=middle;whiteSpace=wrap;rounded=0;" vertex="1" parent="1">
          <mxGeometry x="149" y="1320" width="60" height="30" as="geometry" />
        </mxCell>
        <mxCell id="E2OUhO5gZIwPXRVno6Ox-27" value="" style="html=1;verticalAlign=bottom;endArrow=block;edgeStyle=elbowEdgeStyle;elbow=vertical;curved=0;rounded=0;" edge="1" parent="1">
          <mxGeometry x="0.1579" y="9" relative="1" as="geometry">
            <mxPoint x="60" y="221" as="sourcePoint" />
            <Array as="points">
              <mxPoint x="60" y="221" />
              <mxPoint x="135" y="225.76" />
            </Array>
            <mxPoint x="230" y="221" as="targetPoint" />
            <mxPoint as="offset" />
          </mxGeometry>
        </mxCell>
        <mxCell id="E2OUhO5gZIwPXRVno6Ox-28" value="New:VirtualTour" style="rounded=0;whiteSpace=wrap;html=1;" vertex="1" parent="1">
          <mxGeometry x="1170" y="1310" width="100" height="30" as="geometry" />
        </mxCell>
        <mxCell id="E2OUhO5gZIwPXRVno6Ox-29" value="" style="endArrow=none;dashed=1;html=1;rounded=0;entryX=0.5;entryY=0;entryDx=0;entryDy=0;" edge="1" parent="1" target="E2OUhO5gZIwPXRVno6Ox-28">
          <mxGeometry width="50" height="50" relative="1" as="geometry">
            <mxPoint x="1215" y="90" as="sourcePoint" />
            <mxPoint x="1206.6399999999999" y="555.1700000000001" as="targetPoint" />
          </mxGeometry>
        </mxCell>
        <mxCell id="E2OUhO5gZIwPXRVno6Ox-30" value="" style="endArrow=none;dashed=1;html=1;rounded=0;entryX=0.5;entryY=1;entryDx=0;entryDy=0;" edge="1" parent="1" source="E2OUhO5gZIwPXRVno6Ox-32" target="E2OUhO5gZIwPXRVno6Ox-28">
          <mxGeometry width="50" height="50" relative="1" as="geometry">
            <mxPoint x="1210" y="1599" as="sourcePoint" />
            <mxPoint x="1240" y="1349" as="targetPoint" />
          </mxGeometry>
        </mxCell>
        <mxCell id="E2OUhO5gZIwPXRVno6Ox-31" value="" style="endArrow=none;dashed=1;html=1;rounded=0;entryX=0.5;entryY=1;entryDx=0;entryDy=0;" edge="1" parent="1" target="E2OUhO5gZIwPXRVno6Ox-32">
          <mxGeometry width="50" height="50" relative="1" as="geometry">
            <mxPoint x="1220" y="1460" as="sourcePoint" />
            <mxPoint x="1210" y="1250" as="targetPoint" />
          </mxGeometry>
        </mxCell>
        <mxCell id="E2OUhO5gZIwPXRVno6Ox-32" value="" style="html=1;points=[];perimeter=orthogonalPerimeter;outlineConnect=0;targetShapes=umlLifeline;portConstraint=eastwest;newEdgeStyle={&quot;edgeStyle&quot;:&quot;elbowEdgeStyle&quot;,&quot;elbow&quot;:&quot;vertical&quot;,&quot;curved&quot;:0,&quot;rounded&quot;:0};" vertex="1" parent="1">
          <mxGeometry x="1215" y="1350" width="10" height="81" as="geometry" />
        </mxCell>
        <mxCell id="E2OUhO5gZIwPXRVno6Ox-33" value="" style="endArrow=classic;html=1;rounded=0;" edge="1" parent="1" source="E2OUhO5gZIwPXRVno6Ox-32" target="E2OUhO5gZIwPXRVno6Ox-32">
          <mxGeometry width="50" height="50" relative="1" as="geometry">
            <mxPoint x="1185" y="1499" as="sourcePoint" />
            <mxPoint x="1265" y="1399" as="targetPoint" />
            <Array as="points">
              <mxPoint x="1235" y="1359" />
              <mxPoint x="1285" y="1359" />
              <mxPoint x="1285" y="1389" />
            </Array>
          </mxGeometry>
        </mxCell>
        <mxCell id="E2OUhO5gZIwPXRVno6Ox-34" value="store()" style="edgeLabel;html=1;align=center;verticalAlign=middle;resizable=0;points=[];" vertex="1" connectable="0" parent="1">
          <mxGeometry x="1224.9968965517241" y="1320" as="geometry">
            <mxPoint x="45" y="28" as="offset" />
          </mxGeometry>
        </mxCell>
        <mxCell id="E2OUhO5gZIwPXRVno6Ox-37" value="" style="endArrow=classic;html=1;rounded=0;" edge="1" parent="1">
          <mxGeometry width="50" height="50" relative="1" as="geometry">
            <mxPoint x="240" y="279" as="sourcePoint" />
            <mxPoint x="340" y="279" as="targetPoint" />
            <Array as="points">
              <mxPoint x="280" y="279" />
              <mxPoint x="290" y="279" />
            </Array>
          </mxGeometry>
        </mxCell>
        <mxCell id="E2OUhO5gZIwPXRVno6Ox-38" value="show()" style="edgeLabel;html=1;align=center;verticalAlign=middle;resizable=0;points=[];" vertex="1" connectable="0" parent="E2OUhO5gZIwPXRVno6Ox-37">
          <mxGeometry x="-0.1143" relative="1" as="geometry">
            <mxPoint y="-8" as="offset" />
          </mxGeometry>
        </mxCell>
        <mxCell id="E2OUhO5gZIwPXRVno6Ox-39" value="&lt;font style=&quot;font-size: 9px;&quot;&gt;&lt;br&gt;&lt;/font&gt;" style="html=1;verticalAlign=bottom;endArrow=block;edgeStyle=elbowEdgeStyle;elbow=vertical;curved=0;rounded=0;" edge="1" parent="1" target="E2OUhO5gZIwPXRVno6Ox-17">
          <mxGeometry relative="1" as="geometry">
            <mxPoint x="60" y="299.8" as="sourcePoint" />
            <Array as="points">
              <mxPoint x="60" y="299.8" />
              <mxPoint x="135" y="304.56" />
            </Array>
            <mxPoint x="140" y="299.8" as="targetPoint" />
          </mxGeometry>
        </mxCell>
        <mxCell id="E2OUhO5gZIwPXRVno6Ox-41" value="" style="endArrow=none;dashed=1;html=1;rounded=0;entryX=0.587;entryY=1.086;entryDx=0;entryDy=0;entryPerimeter=0;" edge="1" parent="1" target="wZW1d1mJMonM-m0sMjYR-1">
          <mxGeometry width="50" height="50" relative="1" as="geometry">
            <mxPoint x="144" y="170" as="sourcePoint" />
            <mxPoint x="144" y="160" as="targetPoint" />
          </mxGeometry>
        </mxCell>
        <mxCell id="E2OUhO5gZIwPXRVno6Ox-42" value="" style="html=1;points=[];perimeter=orthogonalPerimeter;outlineConnect=0;targetShapes=umlLifeline;portConstraint=eastwest;newEdgeStyle={&quot;edgeStyle&quot;:&quot;elbowEdgeStyle&quot;,&quot;elbow&quot;:&quot;vertical&quot;,&quot;curved&quot;:0,&quot;rounded&quot;:0};" vertex="1" parent="1">
          <mxGeometry x="140" y="170" width="10" height="40" as="geometry" />
        </mxCell>
        <mxCell id="E2OUhO5gZIwPXRVno6Ox-43" value="" style="endArrow=classic;html=1;rounded=0;" edge="1" parent="1">
          <mxGeometry width="50" height="50" relative="1" as="geometry">
            <mxPoint x="150" y="200" as="sourcePoint" />
            <mxPoint x="230" y="200" as="targetPoint" />
            <Array as="points">
              <mxPoint x="200" y="200" />
            </Array>
          </mxGeometry>
        </mxCell>
        <mxCell id="E2OUhO5gZIwPXRVno6Ox-44" value="show()" style="edgeLabel;html=1;align=center;verticalAlign=middle;resizable=0;points=[];" vertex="1" connectable="0" parent="E2OUhO5gZIwPXRVno6Ox-43">
          <mxGeometry x="-0.1143" relative="1" as="geometry">
            <mxPoint y="-8" as="offset" />
          </mxGeometry>
        </mxCell>
        <mxCell id="E2OUhO5gZIwPXRVno6Ox-46" value="" style="endArrow=none;dashed=1;html=1;rounded=0;entryX=0.998;entryY=0.755;entryDx=0;entryDy=0;entryPerimeter=0;fillColor=#ffe6cc;strokeColor=#d79b00;strokeWidth=3;" edge="1" parent="1" target="E2OUhO5gZIwPXRVno6Ox-3">
          <mxGeometry width="50" height="50" relative="1" as="geometry">
            <mxPoint x="30" y="620" as="sourcePoint" />
            <mxPoint x="80" y="570" as="targetPoint" />
          </mxGeometry>
        </mxCell>
        <mxCell id="E2OUhO5gZIwPXRVno6Ox-47" value="&lt;font style=&quot;font-size: 9px;&quot;&gt;&lt;b&gt;Form is invalid&lt;/b&gt;&lt;/font&gt;" style="text;html=1;strokeColor=#b85450;fillColor=#f8cecc;align=center;verticalAlign=middle;whiteSpace=wrap;rounded=0;" vertex="1" parent="1">
          <mxGeometry x="139" y="390" width="60" height="30" as="geometry" />
        </mxCell>
        <mxCell id="E2OUhO5gZIwPXRVno6Ox-48" value="" style="html=1;verticalAlign=bottom;endArrow=block;edgeStyle=elbowEdgeStyle;elbow=vertical;curved=0;rounded=0;" edge="1" parent="1">
          <mxGeometry x="0.1579" y="9" relative="1" as="geometry">
            <mxPoint x="60" y="460" as="sourcePoint" />
            <Array as="points">
              <mxPoint x="60" y="460" />
              <mxPoint x="135" y="464.76" />
            </Array>
            <mxPoint x="230" y="460" as="targetPoint" />
            <mxPoint as="offset" />
          </mxGeometry>
        </mxCell>
        <mxCell id="E2OUhO5gZIwPXRVno6Ox-49" value="" style="html=1;points=[];perimeter=orthogonalPerimeter;outlineConnect=0;targetShapes=umlLifeline;portConstraint=eastwest;newEdgeStyle={&quot;edgeStyle&quot;:&quot;elbowEdgeStyle&quot;,&quot;elbow&quot;:&quot;vertical&quot;,&quot;curved&quot;:0,&quot;rounded&quot;:0};" vertex="1" parent="1">
          <mxGeometry x="435" y="470" width="10" height="40" as="geometry" />
        </mxCell>
        <mxCell id="E2OUhO5gZIwPXRVno6Ox-50" value="" style="html=1;points=[];perimeter=orthogonalPerimeter;outlineConnect=0;targetShapes=umlLifeline;portConstraint=eastwest;newEdgeStyle={&quot;edgeStyle&quot;:&quot;elbowEdgeStyle&quot;,&quot;elbow&quot;:&quot;vertical&quot;,&quot;curved&quot;:0,&quot;rounded&quot;:0};" vertex="1" parent="1">
          <mxGeometry x="340" y="510" width="10" height="60" as="geometry" />
        </mxCell>
        <mxCell id="E2OUhO5gZIwPXRVno6Ox-51" value="&lt;font style=&quot;font-size: 9px;&quot;&gt;load_tags()&lt;/font&gt;" style="html=1;verticalAlign=bottom;endArrow=block;edgeStyle=elbowEdgeStyle;elbow=vertical;curved=0;rounded=0;" edge="1" parent="1">
          <mxGeometry x="-0.0024" relative="1" as="geometry">
            <mxPoint x="240" y="478.76" as="sourcePoint" />
            <Array as="points">
              <mxPoint x="420" y="478.76" />
              <mxPoint x="370" y="488.76" />
              <mxPoint x="330" y="473.76" />
              <mxPoint x="425" y="478.28" />
            </Array>
            <mxPoint x="435" y="478.76" as="targetPoint" />
            <mxPoint as="offset" />
          </mxGeometry>
        </mxCell>
        <mxCell id="E2OUhO5gZIwPXRVno6Ox-52" value="&lt;font style=&quot;font-size: 9px;&quot;&gt;load_ok()&lt;/font&gt;" style="html=1;verticalAlign=bottom;endArrow=open;dashed=1;endSize=8;edgeStyle=elbowEdgeStyle;elbow=vertical;curved=0;rounded=0;" edge="1" parent="1">
          <mxGeometry relative="1" as="geometry">
            <mxPoint x="240" y="498" as="targetPoint" />
            <Array as="points" />
            <mxPoint x="435" y="498.1428571428571" as="sourcePoint" />
          </mxGeometry>
        </mxCell>
        <mxCell id="E2OUhO5gZIwPXRVno6Ox-53" value="&lt;font style=&quot;font-size: 9px;&quot;&gt;apply_tags()&lt;/font&gt;" style="html=1;verticalAlign=bottom;endArrow=open;dashed=1;endSize=8;edgeStyle=elbowEdgeStyle;elbow=vertical;curved=0;rounded=0;" edge="1" parent="1">
          <mxGeometry relative="1" as="geometry">
            <mxPoint x="240" y="563.1372549019608" as="targetPoint" />
            <Array as="points" />
            <mxPoint x="340" y="562.9966666666667" as="sourcePoint" />
          </mxGeometry>
        </mxCell>
        <mxCell id="E2OUhO5gZIwPXRVno6Ox-54" value="" style="endArrow=classic;html=1;rounded=0;" edge="1" parent="1">
          <mxGeometry width="50" height="50" relative="1" as="geometry">
            <mxPoint x="240" y="519" as="sourcePoint" />
            <mxPoint x="340" y="519" as="targetPoint" />
            <Array as="points">
              <mxPoint x="280" y="519" />
              <mxPoint x="290" y="519" />
            </Array>
          </mxGeometry>
        </mxCell>
        <mxCell id="E2OUhO5gZIwPXRVno6Ox-55" value="show()" style="edgeLabel;html=1;align=center;verticalAlign=middle;resizable=0;points=[];" vertex="1" connectable="0" parent="E2OUhO5gZIwPXRVno6Ox-54">
          <mxGeometry x="-0.1143" relative="1" as="geometry">
            <mxPoint y="-8" as="offset" />
          </mxGeometry>
        </mxCell>
        <mxCell id="E2OUhO5gZIwPXRVno6Ox-56" value="&lt;font style=&quot;font-size: 9px;&quot;&gt;&lt;br&gt;&lt;/font&gt;" style="html=1;verticalAlign=bottom;endArrow=block;edgeStyle=elbowEdgeStyle;elbow=vertical;curved=0;rounded=0;" edge="1" parent="1">
          <mxGeometry relative="1" as="geometry">
            <mxPoint x="60" y="540" as="sourcePoint" />
            <Array as="points">
              <mxPoint x="50" y="539.6600000000001" />
              <mxPoint x="125" y="544.4200000000001" />
            </Array>
            <mxPoint x="330" y="539.86" as="targetPoint" />
          </mxGeometry>
        </mxCell>
        <mxCell id="E2OUhO5gZIwPXRVno6Ox-58" value="Error Message" style="shape=umlLifeline;perimeter=lifelinePerimeter;whiteSpace=wrap;html=1;container=0;dropTarget=0;collapsible=0;recursiveResize=0;outlineConnect=0;portConstraint=eastwest;newEdgeStyle={&quot;edgeStyle&quot;:&quot;elbowEdgeStyle&quot;,&quot;elbow&quot;:&quot;vertical&quot;,&quot;curved&quot;:0,&quot;rounded&quot;:0};" vertex="1" parent="1">
          <mxGeometry x="490" y="100" width="60" height="1360" as="geometry" />
        </mxCell>
        <mxCell id="E2OUhO5gZIwPXRVno6Ox-59" value="" style="html=1;points=[];perimeter=orthogonalPerimeter;outlineConnect=0;targetShapes=umlLifeline;portConstraint=eastwest;newEdgeStyle={&quot;edgeStyle&quot;:&quot;elbowEdgeStyle&quot;,&quot;elbow&quot;:&quot;vertical&quot;,&quot;curved&quot;:0,&quot;rounded&quot;:0};" vertex="1" parent="E2OUhO5gZIwPXRVno6Ox-58">
          <mxGeometry x="25" y="310" width="10" height="40" as="geometry" />
        </mxCell>
        <mxCell id="JycSX32SfxI9GHTS-yg2-21" value="" style="html=1;points=[];perimeter=orthogonalPerimeter;outlineConnect=0;targetShapes=umlLifeline;portConstraint=eastwest;newEdgeStyle={&quot;edgeStyle&quot;:&quot;elbowEdgeStyle&quot;,&quot;elbow&quot;:&quot;vertical&quot;,&quot;curved&quot;:0,&quot;rounded&quot;:0};" vertex="1" parent="E2OUhO5gZIwPXRVno6Ox-58">
          <mxGeometry x="25" y="820" width="10" height="30" as="geometry" />
        </mxCell>
        <mxCell id="E2OUhO5gZIwPXRVno6Ox-60" value="" style="endArrow=classic;html=1;rounded=0;" edge="1" parent="1" target="JycSX32SfxI9GHTS-yg2-4">
          <mxGeometry width="50" height="50" relative="1" as="geometry">
            <mxPoint x="240" y="687" as="sourcePoint" />
            <mxPoint x="720" y="687" as="targetPoint" />
            <Array as="points">
              <mxPoint x="280" y="687" />
              <mxPoint x="290" y="687" />
            </Array>
          </mxGeometry>
        </mxCell>
        <mxCell id="E2OUhO5gZIwPXRVno6Ox-61" value="show()" style="edgeLabel;html=1;align=center;verticalAlign=middle;resizable=0;points=[];" vertex="1" connectable="0" parent="E2OUhO5gZIwPXRVno6Ox-60">
          <mxGeometry x="-0.1143" relative="1" as="geometry">
            <mxPoint y="-8" as="offset" />
          </mxGeometry>
        </mxCell>
        <mxCell id="E2OUhO5gZIwPXRVno6Ox-62" value="&lt;font style=&quot;font-size: 9px;&quot;&gt;&lt;br&gt;&lt;/font&gt;" style="html=1;verticalAlign=bottom;endArrow=block;edgeStyle=elbowEdgeStyle;elbow=vertical;curved=0;rounded=0;" edge="1" parent="1">
          <mxGeometry relative="1" as="geometry">
            <mxPoint x="60" y="740" as="sourcePoint" />
            <Array as="points">
              <mxPoint x="290" y="740" />
              <mxPoint x="300" y="750" />
              <mxPoint x="50" y="711" />
              <mxPoint x="125" y="715.76" />
            </Array>
            <mxPoint x="740" y="740" as="targetPoint" />
          </mxGeometry>
        </mxCell>
        <mxCell id="E2OUhO5gZIwPXRVno6Ox-63" value="alternative" style="shape=umlFrame;whiteSpace=wrap;html=1;pointerEvents=0;" vertex="1" parent="1">
          <mxGeometry x="30" y="1200" width="1290" height="240" as="geometry" />
        </mxCell>
        <mxCell id="E2OUhO5gZIwPXRVno6Ox-66" value="&lt;font style=&quot;font-size: 9px;&quot;&gt;&lt;b&gt;Form is valid&lt;br&gt;&lt;/b&gt;&lt;/font&gt;" style="text;html=1;strokeColor=#82b366;fillColor=#d5e8d4;align=center;verticalAlign=middle;whiteSpace=wrap;rounded=0;" vertex="1" parent="1">
          <mxGeometry x="142" y="630" width="60" height="30" as="geometry" />
        </mxCell>
        <mxCell id="E2OUhO5gZIwPXRVno6Ox-67" value="" style="html=1;verticalAlign=bottom;endArrow=block;edgeStyle=elbowEdgeStyle;elbow=vertical;curved=0;rounded=0;" edge="1" parent="1">
          <mxGeometry x="0.1579" y="9" relative="1" as="geometry">
            <mxPoint x="1010" y="1325" as="sourcePoint" />
            <Array as="points">
              <mxPoint x="1005" y="1324.58" />
              <mxPoint x="1080" y="1329.3400000000001" />
            </Array>
            <mxPoint x="1175" y="1324.58" as="targetPoint" />
            <mxPoint as="offset" />
          </mxGeometry>
        </mxCell>
        <mxCell id="E2OUhO5gZIwPXRVno6Ox-68" value="create_VirtualTour()" style="edgeLabel;html=1;align=center;verticalAlign=middle;resizable=0;points=[];" vertex="1" connectable="0" parent="E2OUhO5gZIwPXRVno6Ox-67">
          <mxGeometry x="-0.2549" y="-3" relative="1" as="geometry">
            <mxPoint x="27" y="12" as="offset" />
          </mxGeometry>
        </mxCell>
        <mxCell id="E2OUhO5gZIwPXRVno6Ox-71" value="" style="endArrow=none;dashed=1;html=1;rounded=0;entryX=-0.003;entryY=0.553;entryDx=0;entryDy=0;entryPerimeter=0;fillColor=#ffe6cc;strokeColor=#d79b00;strokeWidth=3;exitX=1;exitY=0.551;exitDx=0;exitDy=0;exitPerimeter=0;" edge="1" parent="1">
          <mxGeometry width="50" height="50" relative="1" as="geometry">
            <mxPoint x="1270.0000000000005" y="1296.24" as="sourcePoint" />
            <mxPoint x="26.279999999999973" y="1296.72" as="targetPoint" />
          </mxGeometry>
        </mxCell>
        <mxCell id="E2OUhO5gZIwPXRVno6Ox-72" value="&lt;font style=&quot;font-size: 9px;&quot;&gt;&lt;b&gt;User Declined&lt;br&gt;&lt;/b&gt;&lt;/font&gt;" style="text;html=1;strokeColor=#b85450;fillColor=#f8cecc;align=center;verticalAlign=middle;whiteSpace=wrap;rounded=0;" vertex="1" parent="1">
          <mxGeometry x="142" y="1210" width="60" height="30" as="geometry" />
        </mxCell>
        <mxCell id="E2OUhO5gZIwPXRVno6Ox-74" value="" style="html=1;points=[];perimeter=orthogonalPerimeter;outlineConnect=0;targetShapes=umlLifeline;portConstraint=eastwest;newEdgeStyle={&quot;edgeStyle&quot;:&quot;elbowEdgeStyle&quot;,&quot;elbow&quot;:&quot;vertical&quot;,&quot;curved&quot;:0,&quot;rounded&quot;:0};" vertex="1" parent="1">
          <mxGeometry x="140" y="1400" width="10" height="20" as="geometry" />
        </mxCell>
        <mxCell id="E2OUhO5gZIwPXRVno6Ox-75" value="" style="endArrow=classic;html=1;rounded=0;" edge="1" parent="1">
          <mxGeometry width="50" height="50" relative="1" as="geometry">
            <mxPoint x="1000" y="1410" as="sourcePoint" />
            <mxPoint x="150" y="1409.5700000000002" as="targetPoint" />
          </mxGeometry>
        </mxCell>
        <mxCell id="E2OUhO5gZIwPXRVno6Ox-76" value="show()" style="edgeLabel;html=1;align=center;verticalAlign=middle;resizable=0;points=[];" vertex="1" connectable="0" parent="E2OUhO5gZIwPXRVno6Ox-75">
          <mxGeometry x="-0.1636" y="-1" relative="1" as="geometry">
            <mxPoint x="-94" y="-9" as="offset" />
          </mxGeometry>
        </mxCell>
        <mxCell id="E2OUhO5gZIwPXRVno6Ox-77" value="Template" style="shape=umlLifeline;perimeter=lifelinePerimeter;whiteSpace=wrap;html=1;container=0;dropTarget=0;collapsible=0;recursiveResize=0;outlineConnect=0;portConstraint=eastwest;newEdgeStyle={&quot;edgeStyle&quot;:&quot;elbowEdgeStyle&quot;,&quot;elbow&quot;:&quot;vertical&quot;,&quot;curved&quot;:0,&quot;rounded&quot;:0};" vertex="1" parent="1">
          <mxGeometry x="560" y="100" width="60" height="1360" as="geometry" />
        </mxCell>
        <mxCell id="E2OUhO5gZIwPXRVno6Ox-78" value="" style="html=1;points=[];perimeter=orthogonalPerimeter;outlineConnect=0;targetShapes=umlLifeline;portConstraint=eastwest;newEdgeStyle={&quot;edgeStyle&quot;:&quot;elbowEdgeStyle&quot;,&quot;elbow&quot;:&quot;vertical&quot;,&quot;curved&quot;:0,&quot;rounded&quot;:0};" vertex="1" parent="E2OUhO5gZIwPXRVno6Ox-77">
          <mxGeometry x="25" y="530" width="10" height="50" as="geometry" />
        </mxCell>
        <mxCell id="E2OUhO5gZIwPXRVno6Ox-80" value="" style="endArrow=none;dashed=1;html=1;rounded=0;entryX=0.441;entryY=1.108;entryDx=0;entryDy=0;entryPerimeter=0;" edge="1" parent="1" source="JycSX32SfxI9GHTS-yg2-4" target="f5XUt4maeCJUqlZOtaNx-3">
          <mxGeometry width="50" height="50" relative="1" as="geometry">
            <mxPoint x="750.24" y="1020" as="sourcePoint" />
            <mxPoint x="750" y="160" as="targetPoint" />
          </mxGeometry>
        </mxCell>
        <mxCell id="E2OUhO5gZIwPXRVno6Ox-82" value="" style="endArrow=none;dashed=1;html=1;rounded=0;entryX=0.372;entryY=1.046;entryDx=0;entryDy=0;entryPerimeter=0;" edge="1" parent="1" source="JycSX32SfxI9GHTS-yg2-9" target="f5XUt4maeCJUqlZOtaNx-5">
          <mxGeometry width="50" height="50" relative="1" as="geometry">
            <mxPoint x="870.24" y="1020" as="sourcePoint" />
            <mxPoint x="870" y="160" as="targetPoint" />
          </mxGeometry>
        </mxCell>
        <mxCell id="JycSX32SfxI9GHTS-yg2-2" value="&lt;font style=&quot;font-size: 9px;&quot;&gt;load_templates()&lt;/font&gt;" style="html=1;verticalAlign=bottom;endArrow=block;edgeStyle=elbowEdgeStyle;elbow=vertical;curved=0;rounded=0;entryX=0.5;entryY=0.3;entryDx=0;entryDy=0;entryPerimeter=0;" edge="1" parent="1" target="E2OUhO5gZIwPXRVno6Ox-78">
          <mxGeometry x="-0.0024" relative="1" as="geometry">
            <mxPoint x="240" y="644.55" as="sourcePoint" />
            <Array as="points">
              <mxPoint x="420" y="644.55" />
              <mxPoint x="370" y="654.55" />
              <mxPoint x="330" y="639.55" />
              <mxPoint x="425" y="644.0699999999999" />
            </Array>
            <mxPoint x="580" y="645" as="targetPoint" />
            <mxPoint as="offset" />
          </mxGeometry>
        </mxCell>
        <mxCell id="JycSX32SfxI9GHTS-yg2-3" value="&lt;font style=&quot;font-size: 9px;&quot;&gt;load_ok()&lt;/font&gt;" style="html=1;verticalAlign=bottom;endArrow=open;dashed=1;endSize=8;edgeStyle=elbowEdgeStyle;elbow=vertical;curved=0;rounded=0;" edge="1" parent="1">
          <mxGeometry relative="1" as="geometry">
            <mxPoint x="240" y="664.1739130434783" as="targetPoint" />
            <Array as="points" />
            <mxPoint x="580" y="664" as="sourcePoint" />
          </mxGeometry>
        </mxCell>
        <mxCell id="JycSX32SfxI9GHTS-yg2-5" value="" style="endArrow=none;dashed=1;html=1;rounded=0;" edge="1" parent="1" target="JycSX32SfxI9GHTS-yg2-4">
          <mxGeometry width="50" height="50" relative="1" as="geometry">
            <mxPoint x="750" y="1460" as="sourcePoint" />
            <mxPoint x="750" y="160" as="targetPoint" />
          </mxGeometry>
        </mxCell>
        <mxCell id="JycSX32SfxI9GHTS-yg2-4" value="" style="html=1;points=[];perimeter=orthogonalPerimeter;outlineConnect=0;targetShapes=umlLifeline;portConstraint=eastwest;newEdgeStyle={&quot;edgeStyle&quot;:&quot;elbowEdgeStyle&quot;,&quot;elbow&quot;:&quot;vertical&quot;,&quot;curved&quot;:0,&quot;rounded&quot;:0};" vertex="1" parent="1">
          <mxGeometry x="745" y="670" width="10" height="120" as="geometry" />
        </mxCell>
        <mxCell id="JycSX32SfxI9GHTS-yg2-10" value="" style="endArrow=none;dashed=1;html=1;rounded=0;" edge="1" parent="1" target="JycSX32SfxI9GHTS-yg2-9">
          <mxGeometry width="50" height="50" relative="1" as="geometry">
            <mxPoint x="870" y="1460" as="sourcePoint" />
            <mxPoint x="870" y="160" as="targetPoint" />
          </mxGeometry>
        </mxCell>
        <mxCell id="JycSX32SfxI9GHTS-yg2-9" value="" style="html=1;points=[];perimeter=orthogonalPerimeter;outlineConnect=0;targetShapes=umlLifeline;portConstraint=eastwest;newEdgeStyle={&quot;edgeStyle&quot;:&quot;elbowEdgeStyle&quot;,&quot;elbow&quot;:&quot;vertical&quot;,&quot;curved&quot;:0,&quot;rounded&quot;:0};" vertex="1" parent="1">
          <mxGeometry x="865" y="690" width="10" height="420" as="geometry" />
        </mxCell>
        <mxCell id="JycSX32SfxI9GHTS-yg2-11" value="&lt;font style=&quot;font-size: 10px;&quot;&gt;apply_template()&lt;/font&gt;" style="html=1;verticalAlign=bottom;endArrow=block;edgeStyle=elbowEdgeStyle;elbow=vertical;curved=0;rounded=0;" edge="1" parent="1">
          <mxGeometry x="0.1304" y="10" relative="1" as="geometry">
            <mxPoint x="755" y="755" as="sourcePoint" />
            <Array as="points">
              <mxPoint x="885" y="765" />
              <mxPoint x="845" y="750" />
              <mxPoint x="940" y="754.52" />
            </Array>
            <mxPoint x="860" y="765" as="targetPoint" />
            <mxPoint as="offset" />
          </mxGeometry>
        </mxCell>
        <mxCell id="JycSX32SfxI9GHTS-yg2-12" value="" style="endArrow=classic;html=1;rounded=0;" edge="1" parent="1">
          <mxGeometry width="50" height="50" relative="1" as="geometry">
            <mxPoint x="760" y="784.95" as="sourcePoint" />
            <mxPoint x="860" y="786" as="targetPoint" />
            <Array as="points">
              <mxPoint x="810" y="784.95" />
            </Array>
          </mxGeometry>
        </mxCell>
        <mxCell id="JycSX32SfxI9GHTS-yg2-13" value="show()" style="edgeLabel;html=1;align=center;verticalAlign=middle;resizable=0;points=[];" vertex="1" connectable="0" parent="JycSX32SfxI9GHTS-yg2-12">
          <mxGeometry x="-0.1143" relative="1" as="geometry">
            <mxPoint y="-8" as="offset" />
          </mxGeometry>
        </mxCell>
        <mxCell id="JycSX32SfxI9GHTS-yg2-14" value="&lt;font style=&quot;font-size: 9px;&quot;&gt;&lt;br&gt;&lt;/font&gt;" style="html=1;verticalAlign=bottom;endArrow=block;edgeStyle=elbowEdgeStyle;elbow=vertical;curved=0;rounded=0;" edge="1" parent="1">
          <mxGeometry relative="1" as="geometry">
            <mxPoint x="60" y="840" as="sourcePoint" />
            <Array as="points">
              <mxPoint x="290" y="840" />
              <mxPoint x="300" y="850" />
              <mxPoint x="50" y="811" />
              <mxPoint x="125" y="815.76" />
            </Array>
            <mxPoint x="860" y="840" as="targetPoint" />
          </mxGeometry>
        </mxCell>
        <mxCell id="JycSX32SfxI9GHTS-yg2-15" value="" style="endArrow=classic;html=1;rounded=0;" edge="1" parent="1">
          <mxGeometry width="50" height="50" relative="1" as="geometry">
            <mxPoint x="875" y="870" as="sourcePoint" />
            <mxPoint x="875" y="900" as="targetPoint" />
            <Array as="points">
              <mxPoint x="895" y="870" />
              <mxPoint x="955" y="870" />
              <mxPoint x="955" y="890" />
              <mxPoint x="955" y="900" />
              <mxPoint x="905" y="900" />
              <mxPoint x="885" y="900" />
            </Array>
          </mxGeometry>
        </mxCell>
        <mxCell id="JycSX32SfxI9GHTS-yg2-16" value="check_media_size()" style="edgeLabel;html=1;align=center;verticalAlign=middle;resizable=0;points=[];" vertex="1" connectable="0" parent="JycSX32SfxI9GHTS-yg2-15">
          <mxGeometry x="-0.5747" relative="1" as="geometry">
            <mxPoint x="10" y="-10" as="offset" />
          </mxGeometry>
        </mxCell>
        <mxCell id="JycSX32SfxI9GHTS-yg2-17" value="alternative" style="shape=umlFrame;whiteSpace=wrap;html=1;pointerEvents=0;" vertex="1" parent="1">
          <mxGeometry x="30" y="880" width="930" height="240" as="geometry" />
        </mxCell>
        <mxCell id="JycSX32SfxI9GHTS-yg2-19" value="" style="endArrow=none;dashed=1;html=1;rounded=0;entryX=0.999;entryY=0.63;entryDx=0;entryDy=0;entryPerimeter=0;fillColor=#ffe6cc;strokeColor=#d79b00;strokeWidth=3;" edge="1" parent="1" target="JycSX32SfxI9GHTS-yg2-17">
          <mxGeometry width="50" height="50" relative="1" as="geometry">
            <mxPoint x="30" y="1030" as="sourcePoint" />
            <mxPoint x="769" y="1032" as="targetPoint" />
          </mxGeometry>
        </mxCell>
        <mxCell id="JycSX32SfxI9GHTS-yg2-20" value="&lt;font style=&quot;font-size: 9px;&quot;&gt;&lt;b&gt;media size&amp;nbsp; is over the limits&lt;/b&gt;&lt;/font&gt;" style="text;html=1;strokeColor=#b85450;fillColor=#f8cecc;align=center;verticalAlign=middle;whiteSpace=wrap;rounded=0;" vertex="1" parent="1">
          <mxGeometry x="66" y="920" width="73" height="50" as="geometry" />
        </mxCell>
        <mxCell id="JycSX32SfxI9GHTS-yg2-22" value="" style="endArrow=classic;html=1;rounded=0;" edge="1" parent="1" source="JycSX32SfxI9GHTS-yg2-9" target="JycSX32SfxI9GHTS-yg2-21">
          <mxGeometry width="50" height="50" relative="1" as="geometry">
            <mxPoint x="825" y="940" as="sourcePoint" />
            <mxPoint x="540" y="940" as="targetPoint" />
            <Array as="points">
              <mxPoint x="640" y="940" />
              <mxPoint x="620" y="940" />
              <mxPoint x="600" y="940" />
              <mxPoint x="560" y="940" />
            </Array>
          </mxGeometry>
        </mxCell>
        <mxCell id="JycSX32SfxI9GHTS-yg2-23" value="&lt;font style=&quot;font-size: 11px;&quot;&gt;Show_message()&lt;/font&gt;" style="edgeLabel;html=1;align=center;verticalAlign=middle;resizable=0;points=[];" vertex="1" connectable="0" parent="JycSX32SfxI9GHTS-yg2-22">
          <mxGeometry x="-0.4745" y="1" relative="1" as="geometry">
            <mxPoint x="-33" y="-11" as="offset" />
          </mxGeometry>
        </mxCell>
        <mxCell id="JycSX32SfxI9GHTS-yg2-24" value="&lt;font style=&quot;font-size: 9px;&quot;&gt;&lt;br&gt;&lt;/font&gt;" style="html=1;verticalAlign=bottom;endArrow=block;edgeStyle=elbowEdgeStyle;elbow=vertical;curved=0;rounded=0;" edge="1" parent="1">
          <mxGeometry relative="1" as="geometry">
            <mxPoint x="65" y="980" as="sourcePoint" />
            <Array as="points">
              <mxPoint x="295" y="980" />
              <mxPoint x="305" y="990" />
              <mxPoint x="55" y="951" />
              <mxPoint x="130" y="955.76" />
            </Array>
            <mxPoint x="865" y="980" as="targetPoint" />
          </mxGeometry>
        </mxCell>
        <mxCell id="JycSX32SfxI9GHTS-yg2-25" value="&lt;font style=&quot;font-size: 9px;&quot;&gt;&lt;b&gt;media size is accepted&lt;br&gt;&lt;/b&gt;&lt;/font&gt;" style="text;html=1;strokeColor=#82b366;fillColor=#d5e8d4;align=center;verticalAlign=middle;whiteSpace=wrap;rounded=0;" vertex="1" parent="1">
          <mxGeometry x="72.5" y="1070" width="60" height="30" as="geometry" />
        </mxCell>
        <mxCell id="JycSX32SfxI9GHTS-yg2-26" value="&lt;font style=&quot;font-size: 9px;&quot;&gt;&lt;br&gt;&lt;/font&gt;" style="html=1;verticalAlign=bottom;endArrow=block;edgeStyle=elbowEdgeStyle;elbow=vertical;curved=0;rounded=0;" edge="1" parent="1">
          <mxGeometry relative="1" as="geometry">
            <mxPoint x="65" y="1053" as="sourcePoint" />
            <Array as="points">
              <mxPoint x="295" y="1053" />
              <mxPoint x="305" y="1063" />
              <mxPoint x="55" y="1024" />
              <mxPoint x="130" y="1028.76" />
            </Array>
            <mxPoint x="865" y="1053" as="targetPoint" />
          </mxGeometry>
        </mxCell>
        <mxCell id="JycSX32SfxI9GHTS-yg2-27" value="" style="endArrow=classic;html=1;rounded=0;" edge="1" parent="1" source="JycSX32SfxI9GHTS-yg2-9" target="E2OUhO5gZIwPXRVno6Ox-13">
          <mxGeometry width="50" height="50" relative="1" as="geometry">
            <mxPoint x="880" y="1100" as="sourcePoint" />
            <mxPoint x="990" y="1100" as="targetPoint" />
            <Array as="points">
              <mxPoint x="920" y="1100" />
            </Array>
          </mxGeometry>
        </mxCell>
        <mxCell id="JycSX32SfxI9GHTS-yg2-28" value="show()" style="edgeLabel;html=1;align=center;verticalAlign=middle;resizable=0;points=[];" vertex="1" connectable="0" parent="JycSX32SfxI9GHTS-yg2-27">
          <mxGeometry x="-0.1143" relative="1" as="geometry">
            <mxPoint y="-8" as="offset" />
          </mxGeometry>
        </mxCell>
        <mxCell id="JycSX32SfxI9GHTS-yg2-29" value="&lt;font style=&quot;font-size: 9px;&quot;&gt;&lt;br&gt;&lt;/font&gt;" style="html=1;verticalAlign=bottom;endArrow=block;edgeStyle=elbowEdgeStyle;elbow=vertical;curved=0;rounded=0;" edge="1" parent="1">
          <mxGeometry relative="1" as="geometry">
            <mxPoint x="65" y="1151" as="sourcePoint" />
            <Array as="points">
              <mxPoint x="295" y="1151" />
              <mxPoint x="305" y="1161" />
              <mxPoint x="55" y="1122" />
              <mxPoint x="130" y="1126.76" />
            </Array>
            <mxPoint x="1000" y="1151" as="targetPoint" />
          </mxGeometry>
        </mxCell>
        <mxCell id="cfeSdN4V07PQXYMlCQTL-1" value="" style="endArrow=classic;html=1;rounded=0;" edge="1" parent="1">
          <mxGeometry width="50" height="50" relative="1" as="geometry">
            <mxPoint x="1010" y="1190" as="sourcePoint" />
            <mxPoint x="1010" y="1220" as="targetPoint" />
            <Array as="points">
              <mxPoint x="1030" y="1190" />
              <mxPoint x="1090" y="1190" />
              <mxPoint x="1090" y="1210" />
              <mxPoint x="1090" y="1220" />
              <mxPoint x="1040" y="1220" />
              <mxPoint x="1020" y="1220" />
            </Array>
          </mxGeometry>
        </mxCell>
        <mxCell id="cfeSdN4V07PQXYMlCQTL-2" value="post()" style="edgeLabel;html=1;align=center;verticalAlign=middle;resizable=0;points=[];" vertex="1" connectable="0" parent="cfeSdN4V07PQXYMlCQTL-1">
          <mxGeometry x="-0.5747" relative="1" as="geometry">
            <mxPoint x="10" y="-15" as="offset" />
          </mxGeometry>
        </mxCell>
        <mxCell id="pq50q-hKfieiKfYcffR--1" value="" style="html=1;points=[];perimeter=orthogonalPerimeter;outlineConnect=0;targetShapes=umlLifeline;portConstraint=eastwest;newEdgeStyle={&quot;edgeStyle&quot;:&quot;elbowEdgeStyle&quot;,&quot;elbow&quot;:&quot;vertical&quot;,&quot;curved&quot;:0,&quot;rounded&quot;:0};" vertex="1" parent="1">
          <mxGeometry x="139" y="1250" width="10" height="40" as="geometry" />
        </mxCell>
        <mxCell id="qXjH-Z38Yupvxnwv3N21-1" value="" style="endArrow=classic;html=1;rounded=0;" edge="1" parent="1" target="pq50q-hKfieiKfYcffR--1">
          <mxGeometry width="50" height="50" relative="1" as="geometry">
            <mxPoint x="1000" y="1269.5700000000002" as="sourcePoint" />
            <mxPoint x="310" y="1269.99" as="targetPoint" />
          </mxGeometry>
        </mxCell>
        <mxCell id="qXjH-Z38Yupvxnwv3N21-2" value="show()" style="edgeLabel;html=1;align=center;verticalAlign=middle;resizable=0;points=[];" vertex="1" connectable="0" parent="qXjH-Z38Yupvxnwv3N21-1">
          <mxGeometry x="-0.1636" y="-1" relative="1" as="geometry">
            <mxPoint x="-94" y="-9" as="offset" />
          </mxGeometry>
        </mxCell>
        <mxCell id="zGnFeDn-0OeXjANgWQUR-1" value="" style="endArrow=classic;html=1;rounded=0;" edge="1" parent="1">
          <mxGeometry width="50" height="50" relative="1" as="geometry">
            <mxPoint x="240" y="592.9999999999999" as="sourcePoint" />
            <mxPoint x="240" y="609" as="targetPoint" />
            <Array as="points">
              <mxPoint x="260" y="593" />
              <mxPoint x="320" y="593" />
              <mxPoint x="320" y="599" />
              <mxPoint x="320" y="609" />
              <mxPoint x="270" y="609" />
              <mxPoint x="250" y="609" />
            </Array>
          </mxGeometry>
        </mxCell>
        <mxCell id="zGnFeDn-0OeXjANgWQUR-2" value="&lt;font style=&quot;font-size: 9px;&quot;&gt;validate_form()&lt;/font&gt;" style="edgeLabel;html=1;align=center;verticalAlign=middle;resizable=0;points=[];" vertex="1" connectable="0" parent="zGnFeDn-0OeXjANgWQUR-1">
          <mxGeometry x="-0.5747" relative="1" as="geometry">
            <mxPoint x="10" y="-10" as="offset" />
          </mxGeometry>
        </mxCell>
        <mxCell id="zGnFeDn-0OeXjANgWQUR-3" value="" style="endArrow=classic;html=1;rounded=0;" edge="1" parent="1" source="JycSX32SfxI9GHTS-yg2-9">
          <mxGeometry width="50" height="50" relative="1" as="geometry">
            <mxPoint x="880" y="1010" as="sourcePoint" />
            <mxPoint x="875" y="1020" as="targetPoint" />
            <Array as="points">
              <mxPoint x="895" y="1010" />
              <mxPoint x="950" y="1010" />
              <mxPoint x="955" y="1010" />
              <mxPoint x="955" y="1020" />
              <mxPoint x="905" y="1020" />
              <mxPoint x="885" y="1020" />
            </Array>
          </mxGeometry>
        </mxCell>
        <mxCell id="zGnFeDn-0OeXjANgWQUR-4" value="&lt;font style=&quot;font-size: 9px;&quot;&gt;check_media_size()&lt;/font&gt;" style="edgeLabel;html=1;align=center;verticalAlign=middle;resizable=0;points=[];" vertex="1" connectable="0" parent="zGnFeDn-0OeXjANgWQUR-3">
          <mxGeometry x="-0.5747" relative="1" as="geometry">
            <mxPoint x="6" y="-10" as="offset" />
          </mxGeometry>
        </mxCell>
        <mxCell id="5PrBxTNUnm8p1QOFB559-1" value="Files" style="shape=umlLifeline;perimeter=lifelinePerimeter;whiteSpace=wrap;html=1;container=0;dropTarget=0;collapsible=0;recursiveResize=0;outlineConnect=0;portConstraint=eastwest;newEdgeStyle={&quot;edgeStyle&quot;:&quot;elbowEdgeStyle&quot;,&quot;elbow&quot;:&quot;vertical&quot;,&quot;curved&quot;:0,&quot;rounded&quot;:0};" vertex="1" parent="1">
          <mxGeometry x="630" y="100" width="60" height="1360" as="geometry" />
        </mxCell>
        <mxCell id="5PrBxTNUnm8p1QOFB559-2" value="" style="html=1;points=[];perimeter=orthogonalPerimeter;outlineConnect=0;targetShapes=umlLifeline;portConstraint=eastwest;newEdgeStyle={&quot;edgeStyle&quot;:&quot;elbowEdgeStyle&quot;,&quot;elbow&quot;:&quot;vertical&quot;,&quot;curved&quot;:0,&quot;rounded&quot;:0};" vertex="1" parent="5PrBxTNUnm8p1QOFB559-1">
          <mxGeometry x="25" y="975" width="10" height="20" as="geometry" />
        </mxCell>
        <mxCell id="5PrBxTNUnm8p1QOFB559-3" value="" style="endArrow=classic;html=1;rounded=0;" edge="1" parent="1" target="5PrBxTNUnm8p1QOFB559-2">
          <mxGeometry width="50" height="50" relative="1" as="geometry">
            <mxPoint x="860" y="1080" as="sourcePoint" />
            <mxPoint x="520" y="1080" as="targetPoint" />
            <Array as="points">
              <mxPoint x="730" y="1080" />
              <mxPoint x="720" y="1080" />
              <mxPoint x="680" y="1080" />
            </Array>
          </mxGeometry>
        </mxCell>
        <mxCell id="5PrBxTNUnm8p1QOFB559-4" value="&lt;font style=&quot;font-size: 11px;&quot;&gt;save_files()&lt;/font&gt;" style="edgeLabel;html=1;align=center;verticalAlign=middle;resizable=0;points=[];" vertex="1" connectable="0" parent="5PrBxTNUnm8p1QOFB559-3">
          <mxGeometry x="-0.4745" y="1" relative="1" as="geometry">
            <mxPoint x="-33" y="-11" as="offset" />
          </mxGeometry>
        </mxCell>
        <mxCell id="38nLkNhRrIRcOPpzjF6P-1" value="&lt;b&gt;&lt;font style=&quot;font-size: 19px;&quot;&gt;Post Virtual Tour&lt;/font&gt;&lt;/b&gt;" style="text;html=1;align=center;verticalAlign=middle;resizable=0;points=[];autosize=1;strokeColor=none;fillColor=none;" vertex="1" parent="1">
          <mxGeometry width="170" height="40" as="geometry" />
        </mxCell>
        <mxCell id="wZW1d1mJMonM-m0sMjYR-1" value="&lt;font style=&quot;font-size: 12px;&quot;&gt;:&lt;/font&gt;&lt;font style=&quot;font-size: 10px;&quot;&gt;ToursHistoryController&lt;/font&gt;" style="rounded=0;whiteSpace=wrap;html=1;" vertex="1" parent="1">
          <mxGeometry x="80" y="100" width="110" height="30" as="geometry" />
        </mxCell>
        <mxCell id="wZW1d1mJMonM-m0sMjYR-2" value="&lt;font style=&quot;font-size: 10px;&quot;&gt;:NewVirtualTour&lt;br&gt;Controller&amp;nbsp;&lt;/font&gt;" style="rounded=0;whiteSpace=wrap;html=1;" vertex="1" parent="1">
          <mxGeometry x="202" y="100" width="104" height="30" as="geometry" />
        </mxCell>
        <mxCell id="f5XUt4maeCJUqlZOtaNx-2" value="tagSelectView" style="rounded=0;whiteSpace=wrap;html=1;" vertex="1" parent="1">
          <mxGeometry x="320" y="100" width="80" height="30" as="geometry" />
        </mxCell>
        <mxCell id="f5XUt4maeCJUqlZOtaNx-3" value="templateSelectView" style="rounded=0;whiteSpace=wrap;html=1;" vertex="1" parent="1">
          <mxGeometry x="700" y="100" width="112.5" height="30" as="geometry" />
        </mxCell>
        <mxCell id="f5XUt4maeCJUqlZOtaNx-5" value="alterVirtualTourView" style="rounded=0;whiteSpace=wrap;html=1;" vertex="1" parent="1">
          <mxGeometry x="820" y="100" width="135" height="30" as="geometry" />
        </mxCell>
        <mxCell id="rPwwfvKBBlZN4n0_QZvu-1" value="postView" style="rounded=0;whiteSpace=wrap;html=1;" vertex="1" parent="1">
          <mxGeometry x="960" y="100" width="80" height="30" as="geometry" />
        </mxCell>
      </root>
    </mxGraphModel>
  </diagram>
  <diagram id="u31ir7G1l7F2I5Zbu-P-" name="Page-2">
    <mxGraphModel dx="1687" dy="909" grid="1" gridSize="10" guides="1" tooltips="1" connect="1" arrows="1" fold="1" page="1" pageScale="1" pageWidth="850" pageHeight="1100" math="0" shadow="0">
      <root>
        <mxCell id="0" />
        <mxCell id="1" parent="0" />
        <mxCell id="ghcOE-yhJv5Q5-DFHhE4-2" value="" style="endArrow=none;dashed=1;html=1;rounded=0;" edge="1" parent="1" target="ghcOE-yhJv5Q5-DFHhE4-1">
          <mxGeometry width="50" height="50" relative="1" as="geometry">
            <mxPoint x="55" y="1010" as="sourcePoint" />
            <mxPoint x="90" y="180" as="targetPoint" />
          </mxGeometry>
        </mxCell>
        <mxCell id="HSr9TXtTZYakIYIf4xQG-4" value="" style="endArrow=none;dashed=1;html=1;rounded=0;" edge="1" parent="1" source="dobCcsVlNz-XqakbmUWl-13">
          <mxGeometry width="50" height="50" relative="1" as="geometry">
            <mxPoint x="144" y="1010" as="sourcePoint" />
            <mxPoint x="144.24" y="200" as="targetPoint" />
          </mxGeometry>
        </mxCell>
        <mxCell id="iA5vycNmLl-B0erlmBI--1" value="alternative" style="shape=umlFrame;whiteSpace=wrap;html=1;pointerEvents=0;" vertex="1" parent="1">
          <mxGeometry x="30" y="370" width="520" height="320" as="geometry" />
        </mxCell>
        <mxCell id="ghcOE-yhJv5Q5-DFHhE4-8" value="" style="endArrow=none;dashed=1;html=1;rounded=0;entryX=0.5;entryY=1;entryDx=0;entryDy=0;" edge="1" parent="1" target="5Wt1XtSPoglSgutx78cX-2">
          <mxGeometry width="50" height="50" relative="1" as="geometry">
            <mxPoint x="235" y="1010" as="sourcePoint" />
            <mxPoint x="234.76" y="150" as="targetPoint" />
          </mxGeometry>
        </mxCell>
        <mxCell id="ghcOE-yhJv5Q5-DFHhE4-23" value="Tags" style="shape=umlLifeline;perimeter=lifelinePerimeter;whiteSpace=wrap;html=1;container=0;dropTarget=0;collapsible=0;recursiveResize=0;outlineConnect=0;portConstraint=eastwest;newEdgeStyle={&quot;edgeStyle&quot;:&quot;elbowEdgeStyle&quot;,&quot;elbow&quot;:&quot;vertical&quot;,&quot;curved&quot;:0,&quot;rounded&quot;:0};" vertex="1" parent="1">
          <mxGeometry x="410" y="90" width="60" height="920" as="geometry" />
        </mxCell>
        <mxCell id="ghcOE-yhJv5Q5-DFHhE4-24" value="" style="html=1;points=[];perimeter=orthogonalPerimeter;outlineConnect=0;targetShapes=umlLifeline;portConstraint=eastwest;newEdgeStyle={&quot;edgeStyle&quot;:&quot;elbowEdgeStyle&quot;,&quot;elbow&quot;:&quot;vertical&quot;,&quot;curved&quot;:0,&quot;rounded&quot;:0};" vertex="1" parent="ghcOE-yhJv5Q5-DFHhE4-23">
          <mxGeometry x="25" y="130" width="10" height="40" as="geometry" />
        </mxCell>
        <mxCell id="ghcOE-yhJv5Q5-DFHhE4-21" value="" style="endArrow=none;dashed=1;html=1;rounded=0;" edge="1" parent="1" target="ghcOE-yhJv5Q5-DFHhE4-22">
          <mxGeometry width="50" height="50" relative="1" as="geometry">
            <mxPoint x="350" y="1010" as="sourcePoint" />
            <mxPoint x="344.76" y="149.67000000000002" as="targetPoint" />
          </mxGeometry>
        </mxCell>
        <mxCell id="ghcOE-yhJv5Q5-DFHhE4-1" value="" style="shape=umlActor;verticalLabelPosition=bottom;verticalAlign=top;html=1;outlineConnect=0;" vertex="1" parent="1">
          <mxGeometry x="40" y="90" width="30" height="60" as="geometry" />
        </mxCell>
        <mxCell id="ghcOE-yhJv5Q5-DFHhE4-10" value="" style="endArrow=none;dashed=1;html=1;rounded=0;entryX=0.573;entryY=1.006;entryDx=0;entryDy=0;entryPerimeter=0;" edge="1" parent="1" source="ghcOE-yhJv5Q5-DFHhE4-15" target="5Wt1XtSPoglSgutx78cX-4">
          <mxGeometry width="50" height="50" relative="1" as="geometry">
            <mxPoint x="634.76" y="330.3333333333333" as="sourcePoint" />
            <mxPoint x="634.76" y="150" as="targetPoint" />
          </mxGeometry>
        </mxCell>
        <mxCell id="ghcOE-yhJv5Q5-DFHhE4-14" value="" style="endArrow=none;dashed=1;html=1;rounded=0;" edge="1" parent="1">
          <mxGeometry width="50" height="50" relative="1" as="geometry">
            <mxPoint x="635" y="1010" as="sourcePoint" />
            <mxPoint x="635" y="810" as="targetPoint" />
          </mxGeometry>
        </mxCell>
        <mxCell id="ghcOE-yhJv5Q5-DFHhE4-15" value="" style="html=1;points=[];perimeter=orthogonalPerimeter;outlineConnect=0;targetShapes=umlLifeline;portConstraint=eastwest;newEdgeStyle={&quot;edgeStyle&quot;:&quot;elbowEdgeStyle&quot;,&quot;elbow&quot;:&quot;vertical&quot;,&quot;curved&quot;:0,&quot;rounded&quot;:0};" vertex="1" parent="1">
          <mxGeometry x="630" y="640" width="10" height="350" as="geometry" />
        </mxCell>
        <mxCell id="ghcOE-yhJv5Q5-DFHhE4-16" value="&lt;font style=&quot;font-size: 9px;&quot;&gt;&lt;br&gt;&lt;/font&gt;" style="html=1;verticalAlign=bottom;endArrow=block;edgeStyle=elbowEdgeStyle;elbow=vertical;curved=0;rounded=0;" edge="1" parent="1">
          <mxGeometry relative="1" as="geometry">
            <mxPoint x="60" y="171" as="sourcePoint" />
            <Array as="points">
              <mxPoint x="60" y="171" />
              <mxPoint x="135" y="175.76" />
            </Array>
            <mxPoint x="140" y="171" as="targetPoint" />
          </mxGeometry>
        </mxCell>
        <mxCell id="ghcOE-yhJv5Q5-DFHhE4-20" value="" style="endArrow=none;dashed=1;html=1;rounded=0;entryX=0.5;entryY=1;entryDx=0;entryDy=0;" edge="1" parent="1" source="ghcOE-yhJv5Q5-DFHhE4-22" target="5Wt1XtSPoglSgutx78cX-3">
          <mxGeometry width="50" height="50" relative="1" as="geometry">
            <mxPoint x="344.76" y="330.00333333333333" as="sourcePoint" />
            <mxPoint x="344.76" y="149.67000000000002" as="targetPoint" />
          </mxGeometry>
        </mxCell>
        <mxCell id="ghcOE-yhJv5Q5-DFHhE4-22" value="" style="html=1;points=[];perimeter=orthogonalPerimeter;outlineConnect=0;targetShapes=umlLifeline;portConstraint=eastwest;newEdgeStyle={&quot;edgeStyle&quot;:&quot;elbowEdgeStyle&quot;,&quot;elbow&quot;:&quot;vertical&quot;,&quot;curved&quot;:0,&quot;rounded&quot;:0};" vertex="1" parent="1">
          <mxGeometry x="340" y="260" width="10" height="60" as="geometry" />
        </mxCell>
        <mxCell id="ghcOE-yhJv5Q5-DFHhE4-25" value="&lt;font style=&quot;font-size: 9px;&quot;&gt;load_tags()&lt;/font&gt;" style="html=1;verticalAlign=bottom;endArrow=block;edgeStyle=elbowEdgeStyle;elbow=vertical;curved=0;rounded=0;" edge="1" parent="1">
          <mxGeometry x="-0.0024" relative="1" as="geometry">
            <mxPoint x="240" y="228.76" as="sourcePoint" />
            <Array as="points">
              <mxPoint x="420" y="228.76" />
              <mxPoint x="370" y="238.76" />
              <mxPoint x="330" y="223.76" />
              <mxPoint x="425" y="228.27999999999997" />
            </Array>
            <mxPoint x="435" y="228.76" as="targetPoint" />
            <mxPoint as="offset" />
          </mxGeometry>
        </mxCell>
        <mxCell id="ghcOE-yhJv5Q5-DFHhE4-26" value="&lt;font style=&quot;font-size: 9px;&quot;&gt;load_ok()&lt;/font&gt;" style="html=1;verticalAlign=bottom;endArrow=open;dashed=1;endSize=8;edgeStyle=elbowEdgeStyle;elbow=vertical;curved=0;rounded=0;" edge="1" parent="1" target="ghcOE-yhJv5Q5-DFHhE4-11">
          <mxGeometry relative="1" as="geometry">
            <mxPoint x="350" y="248" as="targetPoint" />
            <Array as="points" />
            <mxPoint x="435" y="248.1428571428571" as="sourcePoint" />
          </mxGeometry>
        </mxCell>
        <mxCell id="ghcOE-yhJv5Q5-DFHhE4-27" value="&lt;font style=&quot;font-size: 9px;&quot;&gt;apply_tags()&lt;/font&gt;" style="html=1;verticalAlign=bottom;endArrow=open;dashed=1;endSize=8;edgeStyle=elbowEdgeStyle;elbow=vertical;curved=0;rounded=0;" edge="1" parent="1">
          <mxGeometry relative="1" as="geometry">
            <mxPoint x="240" y="313.1372549019608" as="targetPoint" />
            <Array as="points" />
            <mxPoint x="340" y="312.99666666666667" as="sourcePoint" />
          </mxGeometry>
        </mxCell>
        <mxCell id="q2Sfvav5JOrpmJVsAXCa-4" value="" style="endArrow=classic;html=1;rounded=0;" edge="1" parent="1">
          <mxGeometry width="50" height="50" relative="1" as="geometry">
            <mxPoint x="240" y="360" as="sourcePoint" />
            <mxPoint x="240" y="390" as="targetPoint" />
            <Array as="points">
              <mxPoint x="260" y="360" />
              <mxPoint x="320" y="360" />
              <mxPoint x="320" y="380" />
              <mxPoint x="320" y="390" />
              <mxPoint x="270" y="390" />
              <mxPoint x="250" y="390" />
            </Array>
          </mxGeometry>
        </mxCell>
        <mxCell id="q2Sfvav5JOrpmJVsAXCa-8" value="validate_form()" style="edgeLabel;html=1;align=center;verticalAlign=middle;resizable=0;points=[];" vertex="1" connectable="0" parent="q2Sfvav5JOrpmJVsAXCa-4">
          <mxGeometry x="-0.5747" relative="1" as="geometry">
            <mxPoint x="10" y="-10" as="offset" />
          </mxGeometry>
        </mxCell>
        <mxCell id="ghcOE-yhJv5Q5-DFHhE4-11" value="" style="html=1;points=[];perimeter=orthogonalPerimeter;outlineConnect=0;targetShapes=umlLifeline;portConstraint=eastwest;newEdgeStyle={&quot;edgeStyle&quot;:&quot;elbowEdgeStyle&quot;,&quot;elbow&quot;:&quot;vertical&quot;,&quot;curved&quot;:0,&quot;rounded&quot;:0};" vertex="1" parent="1">
          <mxGeometry x="230" y="180" width="10" height="530" as="geometry" />
        </mxCell>
        <mxCell id="q2Sfvav5JOrpmJVsAXCa-13" value="" style="endArrow=classic;html=1;rounded=0;" edge="1" parent="1" target="HSr9TXtTZYakIYIf4xQG-22">
          <mxGeometry width="50" height="50" relative="1" as="geometry">
            <mxPoint x="240" y="420" as="sourcePoint" />
            <mxPoint x="520" y="420" as="targetPoint" />
            <Array as="points">
              <mxPoint x="260" y="420" />
              <mxPoint x="300" y="420" />
              <mxPoint x="320" y="420" />
              <mxPoint x="340" y="420" />
            </Array>
          </mxGeometry>
        </mxCell>
        <mxCell id="q2Sfvav5JOrpmJVsAXCa-14" value="&lt;font style=&quot;font-size: 9px;&quot;&gt;Show_message()&lt;/font&gt;" style="edgeLabel;html=1;align=center;verticalAlign=middle;resizable=0;points=[];" vertex="1" connectable="0" parent="q2Sfvav5JOrpmJVsAXCa-13">
          <mxGeometry x="-0.4745" y="1" relative="1" as="geometry">
            <mxPoint x="5" y="-9" as="offset" />
          </mxGeometry>
        </mxCell>
        <mxCell id="q2Sfvav5JOrpmJVsAXCa-15" value="&lt;font style=&quot;font-size: 9px;&quot;&gt;&lt;b&gt;User Accepted&lt;/b&gt;&lt;/font&gt;" style="text;html=1;strokeColor=#82b366;fillColor=#d5e8d4;align=center;verticalAlign=middle;whiteSpace=wrap;rounded=0;" vertex="1" parent="1">
          <mxGeometry x="150" y="770" width="60" height="30" as="geometry" />
        </mxCell>
        <mxCell id="ghcOE-yhJv5Q5-DFHhE4-17" value="" style="html=1;verticalAlign=bottom;endArrow=block;edgeStyle=elbowEdgeStyle;elbow=vertical;curved=0;rounded=0;" edge="1" parent="1">
          <mxGeometry x="0.1579" y="9" relative="1" as="geometry">
            <mxPoint x="60" y="211" as="sourcePoint" />
            <Array as="points">
              <mxPoint x="60" y="211" />
              <mxPoint x="135" y="215.76" />
            </Array>
            <mxPoint x="230" y="211" as="targetPoint" />
            <mxPoint as="offset" />
          </mxGeometry>
        </mxCell>
        <mxCell id="q2Sfvav5JOrpmJVsAXCa-41" value="New:Event" style="rounded=0;whiteSpace=wrap;html=1;" vertex="1" parent="1">
          <mxGeometry x="805" y="780" width="80" height="30" as="geometry" />
        </mxCell>
        <mxCell id="q2Sfvav5JOrpmJVsAXCa-42" value="" style="endArrow=none;dashed=1;html=1;rounded=0;entryX=0.5;entryY=0;entryDx=0;entryDy=0;" edge="1" parent="1" target="q2Sfvav5JOrpmJVsAXCa-41">
          <mxGeometry width="50" height="50" relative="1" as="geometry">
            <mxPoint x="845" y="90" as="sourcePoint" />
            <mxPoint x="836.6399999999999" y="555.1700000000001" as="targetPoint" />
          </mxGeometry>
        </mxCell>
        <mxCell id="q2Sfvav5JOrpmJVsAXCa-44" value="" style="endArrow=none;dashed=1;html=1;rounded=0;entryX=0.5;entryY=1;entryDx=0;entryDy=0;" edge="1" parent="1" source="q2Sfvav5JOrpmJVsAXCa-45" target="q2Sfvav5JOrpmJVsAXCa-41">
          <mxGeometry width="50" height="50" relative="1" as="geometry">
            <mxPoint x="845" y="1069" as="sourcePoint" />
            <mxPoint x="875" y="819" as="targetPoint" />
          </mxGeometry>
        </mxCell>
        <mxCell id="q2Sfvav5JOrpmJVsAXCa-46" value="" style="endArrow=none;dashed=1;html=1;rounded=0;entryX=0.5;entryY=1;entryDx=0;entryDy=0;" edge="1" parent="1" target="q2Sfvav5JOrpmJVsAXCa-45">
          <mxGeometry width="50" height="50" relative="1" as="geometry">
            <mxPoint x="845" y="1010" as="sourcePoint" />
            <mxPoint x="845" y="720" as="targetPoint" />
          </mxGeometry>
        </mxCell>
        <mxCell id="q2Sfvav5JOrpmJVsAXCa-45" value="" style="html=1;points=[];perimeter=orthogonalPerimeter;outlineConnect=0;targetShapes=umlLifeline;portConstraint=eastwest;newEdgeStyle={&quot;edgeStyle&quot;:&quot;elbowEdgeStyle&quot;,&quot;elbow&quot;:&quot;vertical&quot;,&quot;curved&quot;:0,&quot;rounded&quot;:0};" vertex="1" parent="1">
          <mxGeometry x="840" y="819" width="10" height="81" as="geometry" />
        </mxCell>
        <mxCell id="q2Sfvav5JOrpmJVsAXCa-47" value="" style="endArrow=classic;html=1;rounded=0;" edge="1" parent="1" source="q2Sfvav5JOrpmJVsAXCa-45" target="q2Sfvav5JOrpmJVsAXCa-45">
          <mxGeometry width="50" height="50" relative="1" as="geometry">
            <mxPoint x="820" y="969" as="sourcePoint" />
            <mxPoint x="900" y="869" as="targetPoint" />
            <Array as="points">
              <mxPoint x="870" y="829" />
              <mxPoint x="920" y="829" />
              <mxPoint x="920" y="859" />
            </Array>
          </mxGeometry>
        </mxCell>
        <mxCell id="q2Sfvav5JOrpmJVsAXCa-48" value="store()" style="edgeLabel;html=1;align=center;verticalAlign=middle;resizable=0;points=[];" vertex="1" connectable="0" parent="1">
          <mxGeometry x="859.9968965517241" y="790" as="geometry">
            <mxPoint x="45" y="28" as="offset" />
          </mxGeometry>
        </mxCell>
        <mxCell id="q2Sfvav5JOrpmJVsAXCa-56" value="" style="endArrow=classic;html=1;rounded=0;" edge="1" parent="1" target="dobCcsVlNz-XqakbmUWl-13">
          <mxGeometry width="50" height="50" relative="1" as="geometry">
            <mxPoint x="630" y="880" as="sourcePoint" />
            <mxPoint x="760" y="879.58" as="targetPoint" />
          </mxGeometry>
        </mxCell>
        <mxCell id="q2Sfvav5JOrpmJVsAXCa-57" value="show()" style="edgeLabel;html=1;align=center;verticalAlign=middle;resizable=0;points=[];" vertex="1" connectable="0" parent="q2Sfvav5JOrpmJVsAXCa-56">
          <mxGeometry x="-0.1636" y="-1" relative="1" as="geometry">
            <mxPoint x="-71" y="-9" as="offset" />
          </mxGeometry>
        </mxCell>
        <mxCell id="TqQLpwkZmhQehiZ-NACF-2" value="" style="endArrow=classic;html=1;rounded=0;" edge="1" parent="1">
          <mxGeometry width="50" height="50" relative="1" as="geometry">
            <mxPoint x="240" y="269" as="sourcePoint" />
            <mxPoint x="340" y="269" as="targetPoint" />
            <Array as="points">
              <mxPoint x="280" y="269" />
              <mxPoint x="290" y="269" />
            </Array>
          </mxGeometry>
        </mxCell>
        <mxCell id="TqQLpwkZmhQehiZ-NACF-3" value="show()" style="edgeLabel;html=1;align=center;verticalAlign=middle;resizable=0;points=[];" vertex="1" connectable="0" parent="TqQLpwkZmhQehiZ-NACF-2">
          <mxGeometry x="-0.1143" relative="1" as="geometry">
            <mxPoint y="-8" as="offset" />
          </mxGeometry>
        </mxCell>
        <mxCell id="TqQLpwkZmhQehiZ-NACF-4" value="&lt;font style=&quot;font-size: 9px;&quot;&gt;&lt;br&gt;&lt;/font&gt;" style="html=1;verticalAlign=bottom;endArrow=block;edgeStyle=elbowEdgeStyle;elbow=vertical;curved=0;rounded=0;" edge="1" parent="1" target="ghcOE-yhJv5Q5-DFHhE4-22">
          <mxGeometry relative="1" as="geometry">
            <mxPoint x="60" y="289.8" as="sourcePoint" />
            <Array as="points">
              <mxPoint x="60" y="289.8" />
              <mxPoint x="135" y="294.56" />
            </Array>
            <mxPoint x="140" y="289.8" as="targetPoint" />
          </mxGeometry>
        </mxCell>
        <mxCell id="HSr9TXtTZYakIYIf4xQG-2" value="" style="endArrow=none;dashed=1;html=1;rounded=0;entryX=0.634;entryY=1.055;entryDx=0;entryDy=0;entryPerimeter=0;" edge="1" parent="1" target="5Wt1XtSPoglSgutx78cX-1">
          <mxGeometry width="50" height="50" relative="1" as="geometry">
            <mxPoint x="144" y="160" as="sourcePoint" />
            <mxPoint x="144" y="150" as="targetPoint" />
          </mxGeometry>
        </mxCell>
        <mxCell id="HSr9TXtTZYakIYIf4xQG-3" value="" style="html=1;points=[];perimeter=orthogonalPerimeter;outlineConnect=0;targetShapes=umlLifeline;portConstraint=eastwest;newEdgeStyle={&quot;edgeStyle&quot;:&quot;elbowEdgeStyle&quot;,&quot;elbow&quot;:&quot;vertical&quot;,&quot;curved&quot;:0,&quot;rounded&quot;:0};" vertex="1" parent="1">
          <mxGeometry x="140" y="160" width="10" height="40" as="geometry" />
        </mxCell>
        <mxCell id="HSr9TXtTZYakIYIf4xQG-5" value="" style="endArrow=classic;html=1;rounded=0;" edge="1" parent="1">
          <mxGeometry width="50" height="50" relative="1" as="geometry">
            <mxPoint x="150" y="190" as="sourcePoint" />
            <mxPoint x="230" y="190" as="targetPoint" />
            <Array as="points">
              <mxPoint x="200" y="190" />
            </Array>
          </mxGeometry>
        </mxCell>
        <mxCell id="HSr9TXtTZYakIYIf4xQG-6" value="show()" style="edgeLabel;html=1;align=center;verticalAlign=middle;resizable=0;points=[];" vertex="1" connectable="0" parent="HSr9TXtTZYakIYIf4xQG-5">
          <mxGeometry x="-0.1143" relative="1" as="geometry">
            <mxPoint y="-8" as="offset" />
          </mxGeometry>
        </mxCell>
        <mxCell id="HSr9TXtTZYakIYIf4xQG-8" value="" style="endArrow=none;dashed=1;html=1;rounded=0;entryX=0.998;entryY=0.755;entryDx=0;entryDy=0;entryPerimeter=0;fillColor=#ffe6cc;strokeColor=#d79b00;strokeWidth=3;" edge="1" parent="1" target="iA5vycNmLl-B0erlmBI--1">
          <mxGeometry width="50" height="50" relative="1" as="geometry">
            <mxPoint x="30" y="610" as="sourcePoint" />
            <mxPoint x="80" y="560" as="targetPoint" />
          </mxGeometry>
        </mxCell>
        <mxCell id="HSr9TXtTZYakIYIf4xQG-10" value="&lt;font style=&quot;font-size: 9px;&quot;&gt;&lt;b&gt;Form is invalid&lt;/b&gt;&lt;/font&gt;" style="text;html=1;strokeColor=#b85450;fillColor=#f8cecc;align=center;verticalAlign=middle;whiteSpace=wrap;rounded=0;" vertex="1" parent="1">
          <mxGeometry x="150" y="380" width="60" height="30" as="geometry" />
        </mxCell>
        <mxCell id="HSr9TXtTZYakIYIf4xQG-11" value="" style="html=1;verticalAlign=bottom;endArrow=block;edgeStyle=elbowEdgeStyle;elbow=vertical;curved=0;rounded=0;" edge="1" parent="1">
          <mxGeometry x="0.1579" y="9" relative="1" as="geometry">
            <mxPoint x="60" y="450" as="sourcePoint" />
            <Array as="points">
              <mxPoint x="60" y="450" />
              <mxPoint x="135" y="454.76" />
            </Array>
            <mxPoint x="230" y="450" as="targetPoint" />
            <mxPoint as="offset" />
          </mxGeometry>
        </mxCell>
        <mxCell id="HSr9TXtTZYakIYIf4xQG-12" value="" style="html=1;points=[];perimeter=orthogonalPerimeter;outlineConnect=0;targetShapes=umlLifeline;portConstraint=eastwest;newEdgeStyle={&quot;edgeStyle&quot;:&quot;elbowEdgeStyle&quot;,&quot;elbow&quot;:&quot;vertical&quot;,&quot;curved&quot;:0,&quot;rounded&quot;:0};" vertex="1" parent="1">
          <mxGeometry x="435" y="460" width="10" height="40" as="geometry" />
        </mxCell>
        <mxCell id="HSr9TXtTZYakIYIf4xQG-13" value="" style="html=1;points=[];perimeter=orthogonalPerimeter;outlineConnect=0;targetShapes=umlLifeline;portConstraint=eastwest;newEdgeStyle={&quot;edgeStyle&quot;:&quot;elbowEdgeStyle&quot;,&quot;elbow&quot;:&quot;vertical&quot;,&quot;curved&quot;:0,&quot;rounded&quot;:0};" vertex="1" parent="1">
          <mxGeometry x="340" y="500" width="10" height="60" as="geometry" />
        </mxCell>
        <mxCell id="HSr9TXtTZYakIYIf4xQG-14" value="&lt;font style=&quot;font-size: 9px;&quot;&gt;load_tags()&lt;/font&gt;" style="html=1;verticalAlign=bottom;endArrow=block;edgeStyle=elbowEdgeStyle;elbow=vertical;curved=0;rounded=0;" edge="1" parent="1">
          <mxGeometry x="-0.0024" relative="1" as="geometry">
            <mxPoint x="240" y="468.76" as="sourcePoint" />
            <Array as="points">
              <mxPoint x="420" y="468.76" />
              <mxPoint x="370" y="478.76" />
              <mxPoint x="330" y="463.76" />
              <mxPoint x="425" y="468.28" />
            </Array>
            <mxPoint x="435" y="468.76" as="targetPoint" />
            <mxPoint as="offset" />
          </mxGeometry>
        </mxCell>
        <mxCell id="HSr9TXtTZYakIYIf4xQG-15" value="&lt;font style=&quot;font-size: 9px;&quot;&gt;load_ok()&lt;/font&gt;" style="html=1;verticalAlign=bottom;endArrow=open;dashed=1;endSize=8;edgeStyle=elbowEdgeStyle;elbow=vertical;curved=0;rounded=0;" edge="1" parent="1">
          <mxGeometry relative="1" as="geometry">
            <mxPoint x="240" y="488" as="targetPoint" />
            <Array as="points" />
            <mxPoint x="435" y="488.1428571428571" as="sourcePoint" />
          </mxGeometry>
        </mxCell>
        <mxCell id="HSr9TXtTZYakIYIf4xQG-16" value="&lt;font style=&quot;font-size: 9px;&quot;&gt;apply_tags()&lt;/font&gt;" style="html=1;verticalAlign=bottom;endArrow=open;dashed=1;endSize=8;edgeStyle=elbowEdgeStyle;elbow=vertical;curved=0;rounded=0;" edge="1" parent="1">
          <mxGeometry relative="1" as="geometry">
            <mxPoint x="240" y="553.1372549019608" as="targetPoint" />
            <Array as="points" />
            <mxPoint x="340" y="552.9966666666667" as="sourcePoint" />
          </mxGeometry>
        </mxCell>
        <mxCell id="HSr9TXtTZYakIYIf4xQG-17" value="" style="endArrow=classic;html=1;rounded=0;" edge="1" parent="1">
          <mxGeometry width="50" height="50" relative="1" as="geometry">
            <mxPoint x="240" y="509" as="sourcePoint" />
            <mxPoint x="340" y="509" as="targetPoint" />
            <Array as="points">
              <mxPoint x="280" y="509" />
              <mxPoint x="290" y="509" />
            </Array>
          </mxGeometry>
        </mxCell>
        <mxCell id="HSr9TXtTZYakIYIf4xQG-18" value="show()" style="edgeLabel;html=1;align=center;verticalAlign=middle;resizable=0;points=[];" vertex="1" connectable="0" parent="HSr9TXtTZYakIYIf4xQG-17">
          <mxGeometry x="-0.1143" relative="1" as="geometry">
            <mxPoint y="-8" as="offset" />
          </mxGeometry>
        </mxCell>
        <mxCell id="HSr9TXtTZYakIYIf4xQG-19" value="&lt;font style=&quot;font-size: 9px;&quot;&gt;&lt;br&gt;&lt;/font&gt;" style="html=1;verticalAlign=bottom;endArrow=block;edgeStyle=elbowEdgeStyle;elbow=vertical;curved=0;rounded=0;" edge="1" parent="1">
          <mxGeometry relative="1" as="geometry">
            <mxPoint x="50" y="529.6600000000001" as="sourcePoint" />
            <Array as="points">
              <mxPoint x="50" y="529.6600000000001" />
              <mxPoint x="125" y="534.4200000000001" />
            </Array>
            <mxPoint x="330" y="529.86" as="targetPoint" />
          </mxGeometry>
        </mxCell>
        <mxCell id="HSr9TXtTZYakIYIf4xQG-21" value="Error Message" style="shape=umlLifeline;perimeter=lifelinePerimeter;whiteSpace=wrap;html=1;container=0;dropTarget=0;collapsible=0;recursiveResize=0;outlineConnect=0;portConstraint=eastwest;newEdgeStyle={&quot;edgeStyle&quot;:&quot;elbowEdgeStyle&quot;,&quot;elbow&quot;:&quot;vertical&quot;,&quot;curved&quot;:0,&quot;rounded&quot;:0};" vertex="1" parent="1">
          <mxGeometry x="500" y="90" width="60" height="920" as="geometry" />
        </mxCell>
        <mxCell id="HSr9TXtTZYakIYIf4xQG-22" value="" style="html=1;points=[];perimeter=orthogonalPerimeter;outlineConnect=0;targetShapes=umlLifeline;portConstraint=eastwest;newEdgeStyle={&quot;edgeStyle&quot;:&quot;elbowEdgeStyle&quot;,&quot;elbow&quot;:&quot;vertical&quot;,&quot;curved&quot;:0,&quot;rounded&quot;:0};" vertex="1" parent="HSr9TXtTZYakIYIf4xQG-21">
          <mxGeometry x="25" y="310" width="10" height="40" as="geometry" />
        </mxCell>
        <mxCell id="dobCcsVlNz-XqakbmUWl-3" value="" style="endArrow=classic;html=1;rounded=0;" edge="1" parent="1" target="ghcOE-yhJv5Q5-DFHhE4-15">
          <mxGeometry width="50" height="50" relative="1" as="geometry">
            <mxPoint x="240" y="651" as="sourcePoint" />
            <mxPoint x="600" y="650" as="targetPoint" />
            <Array as="points">
              <mxPoint x="280" y="651" />
              <mxPoint x="290" y="651" />
            </Array>
          </mxGeometry>
        </mxCell>
        <mxCell id="dobCcsVlNz-XqakbmUWl-4" value="show()" style="edgeLabel;html=1;align=center;verticalAlign=middle;resizable=0;points=[];" vertex="1" connectable="0" parent="dobCcsVlNz-XqakbmUWl-3">
          <mxGeometry x="-0.1143" relative="1" as="geometry">
            <mxPoint y="-8" as="offset" />
          </mxGeometry>
        </mxCell>
        <mxCell id="dobCcsVlNz-XqakbmUWl-5" value="&lt;font style=&quot;font-size: 9px;&quot;&gt;&lt;br&gt;&lt;/font&gt;" style="html=1;verticalAlign=bottom;endArrow=block;edgeStyle=elbowEdgeStyle;elbow=vertical;curved=0;rounded=0;" edge="1" parent="1">
          <mxGeometry relative="1" as="geometry">
            <mxPoint x="60" y="720" as="sourcePoint" />
            <Array as="points">
              <mxPoint x="300" y="720" />
              <mxPoint x="310" y="730" />
              <mxPoint x="60" y="691" />
              <mxPoint x="135" y="695.76" />
            </Array>
            <mxPoint x="630" y="720" as="targetPoint" />
          </mxGeometry>
        </mxCell>
        <mxCell id="dobCcsVlNz-XqakbmUWl-6" value="alternative" style="shape=umlFrame;whiteSpace=wrap;html=1;pointerEvents=0;" vertex="1" parent="1">
          <mxGeometry x="30" y="760" width="930" height="240" as="geometry" />
        </mxCell>
        <mxCell id="dobCcsVlNz-XqakbmUWl-8" value="" style="endArrow=classic;html=1;rounded=0;" edge="1" parent="1">
          <mxGeometry width="50" height="50" relative="1" as="geometry">
            <mxPoint x="640" y="745" as="sourcePoint" />
            <mxPoint x="640" y="775" as="targetPoint" />
            <Array as="points">
              <mxPoint x="660" y="745" />
              <mxPoint x="720" y="745" />
              <mxPoint x="720" y="765" />
              <mxPoint x="720" y="775" />
              <mxPoint x="670" y="775" />
              <mxPoint x="650" y="775" />
            </Array>
          </mxGeometry>
        </mxCell>
        <mxCell id="dobCcsVlNz-XqakbmUWl-9" value="post()" style="edgeLabel;html=1;align=center;verticalAlign=middle;resizable=0;points=[];" vertex="1" connectable="0" parent="dobCcsVlNz-XqakbmUWl-8">
          <mxGeometry x="-0.5747" relative="1" as="geometry">
            <mxPoint x="10" y="-15" as="offset" />
          </mxGeometry>
        </mxCell>
        <mxCell id="dobCcsVlNz-XqakbmUWl-10" value="&lt;font style=&quot;font-size: 9px;&quot;&gt;&lt;b&gt;Form is valid&lt;br&gt;&lt;/b&gt;&lt;/font&gt;" style="text;html=1;strokeColor=#82b366;fillColor=#d5e8d4;align=center;verticalAlign=middle;whiteSpace=wrap;rounded=0;" vertex="1" parent="1">
          <mxGeometry x="150" y="620" width="60" height="30" as="geometry" />
        </mxCell>
        <mxCell id="dobCcsVlNz-XqakbmUWl-11" value="" style="html=1;verticalAlign=bottom;endArrow=block;edgeStyle=elbowEdgeStyle;elbow=vertical;curved=0;rounded=0;" edge="1" parent="1">
          <mxGeometry x="0.1579" y="9" relative="1" as="geometry">
            <mxPoint x="640" y="794.58" as="sourcePoint" />
            <Array as="points">
              <mxPoint x="640" y="794.58" />
              <mxPoint x="715" y="799.34" />
            </Array>
            <mxPoint x="810" y="794.58" as="targetPoint" />
            <mxPoint as="offset" />
          </mxGeometry>
        </mxCell>
        <mxCell id="dobCcsVlNz-XqakbmUWl-12" value="create_event()" style="edgeLabel;html=1;align=center;verticalAlign=middle;resizable=0;points=[];" vertex="1" connectable="0" parent="dobCcsVlNz-XqakbmUWl-11">
          <mxGeometry x="-0.2549" y="-3" relative="1" as="geometry">
            <mxPoint x="27" y="12" as="offset" />
          </mxGeometry>
        </mxCell>
        <mxCell id="dobCcsVlNz-XqakbmUWl-14" value="" style="endArrow=none;dashed=1;html=1;rounded=0;" edge="1" parent="1" source="dobCcsVlNz-XqakbmUWl-17" target="dobCcsVlNz-XqakbmUWl-13">
          <mxGeometry width="50" height="50" relative="1" as="geometry">
            <mxPoint x="144" y="1010" as="sourcePoint" />
            <mxPoint x="144.24" y="200" as="targetPoint" />
          </mxGeometry>
        </mxCell>
        <mxCell id="dobCcsVlNz-XqakbmUWl-13" value="" style="html=1;points=[];perimeter=orthogonalPerimeter;outlineConnect=0;targetShapes=umlLifeline;portConstraint=eastwest;newEdgeStyle={&quot;edgeStyle&quot;:&quot;elbowEdgeStyle&quot;,&quot;elbow&quot;:&quot;vertical&quot;,&quot;curved&quot;:0,&quot;rounded&quot;:0};" vertex="1" parent="1">
          <mxGeometry x="140" y="850" width="10" height="40" as="geometry" />
        </mxCell>
        <mxCell id="dobCcsVlNz-XqakbmUWl-15" value="" style="endArrow=none;dashed=1;html=1;rounded=0;entryX=0.999;entryY=0.671;entryDx=0;entryDy=0;entryPerimeter=0;fillColor=#ffe6cc;strokeColor=#d79b00;strokeWidth=3;" edge="1" parent="1" target="dobCcsVlNz-XqakbmUWl-6">
          <mxGeometry width="50" height="50" relative="1" as="geometry">
            <mxPoint x="31" y="920" as="sourcePoint" />
            <mxPoint x="550" y="922" as="targetPoint" />
          </mxGeometry>
        </mxCell>
        <mxCell id="dobCcsVlNz-XqakbmUWl-16" value="&lt;font style=&quot;font-size: 9px;&quot;&gt;&lt;b&gt;User Declined&lt;br&gt;&lt;/b&gt;&lt;/font&gt;" style="text;html=1;strokeColor=#b85450;fillColor=#f8cecc;align=center;verticalAlign=middle;whiteSpace=wrap;rounded=0;" vertex="1" parent="1">
          <mxGeometry x="150" y="930" width="60" height="30" as="geometry" />
        </mxCell>
        <mxCell id="dobCcsVlNz-XqakbmUWl-18" value="" style="endArrow=none;dashed=1;html=1;rounded=0;" edge="1" parent="1" target="dobCcsVlNz-XqakbmUWl-17">
          <mxGeometry width="50" height="50" relative="1" as="geometry">
            <mxPoint x="144" y="1010" as="sourcePoint" />
            <mxPoint x="144" y="890" as="targetPoint" />
          </mxGeometry>
        </mxCell>
        <mxCell id="dobCcsVlNz-XqakbmUWl-17" value="" style="html=1;points=[];perimeter=orthogonalPerimeter;outlineConnect=0;targetShapes=umlLifeline;portConstraint=eastwest;newEdgeStyle={&quot;edgeStyle&quot;:&quot;elbowEdgeStyle&quot;,&quot;elbow&quot;:&quot;vertical&quot;,&quot;curved&quot;:0,&quot;rounded&quot;:0};" vertex="1" parent="1">
          <mxGeometry x="140" y="970" width="10" height="20" as="geometry" />
        </mxCell>
        <mxCell id="dobCcsVlNz-XqakbmUWl-19" value="" style="endArrow=classic;html=1;rounded=0;" edge="1" parent="1" source="ghcOE-yhJv5Q5-DFHhE4-15">
          <mxGeometry width="50" height="50" relative="1" as="geometry">
            <mxPoint x="840" y="979.5" as="sourcePoint" />
            <mxPoint x="150" y="979.9200000000001" as="targetPoint" />
          </mxGeometry>
        </mxCell>
        <mxCell id="dobCcsVlNz-XqakbmUWl-20" value="show()" style="edgeLabel;html=1;align=center;verticalAlign=middle;resizable=0;points=[];" vertex="1" connectable="0" parent="dobCcsVlNz-XqakbmUWl-19">
          <mxGeometry x="-0.1636" y="-1" relative="1" as="geometry">
            <mxPoint x="-39" y="-9" as="offset" />
          </mxGeometry>
        </mxCell>
        <mxCell id="_MkGy26J_huqwWudzGJJ-1" value="&lt;b&gt;&lt;font style=&quot;font-size: 19px;&quot;&gt;Post Event&lt;/font&gt;&lt;/b&gt;" style="text;html=1;align=center;verticalAlign=middle;resizable=0;points=[];autosize=1;strokeColor=none;fillColor=none;" vertex="1" parent="1">
          <mxGeometry width="120" height="40" as="geometry" />
        </mxCell>
        <mxCell id="5Wt1XtSPoglSgutx78cX-1" value="&lt;font style=&quot;font-size: 12px;&quot;&gt;:EventsHistory&lt;br&gt;Controller&lt;/font&gt;" style="rounded=0;whiteSpace=wrap;html=1;" vertex="1" parent="1">
          <mxGeometry x="80" y="90" width="100" height="30" as="geometry" />
        </mxCell>
        <mxCell id="5Wt1XtSPoglSgutx78cX-2" value="&lt;font style=&quot;font-size: 12px;&quot;&gt;:NewEvent&lt;br&gt;Controller&lt;/font&gt;" style="rounded=0;whiteSpace=wrap;html=1;" vertex="1" parent="1">
          <mxGeometry x="185" y="90" width="100" height="30" as="geometry" />
        </mxCell>
        <mxCell id="5Wt1XtSPoglSgutx78cX-3" value="tagSelectView" style="rounded=0;whiteSpace=wrap;html=1;" vertex="1" parent="1">
          <mxGeometry x="305" y="90" width="80" height="30" as="geometry" />
        </mxCell>
        <mxCell id="5Wt1XtSPoglSgutx78cX-4" value="postView" style="rounded=0;whiteSpace=wrap;html=1;" vertex="1" parent="1">
          <mxGeometry x="590" y="90" width="80" height="30" as="geometry" />
        </mxCell>
      </root>
    </mxGraphModel>
  </diagram>
</mxfile>
